<?xml version="1.0" standalone="no"?>
<!DOCTYPE svg PUBLIC "-//W3C//DTD SVG 1.1//EN" "http://www.w3.org/Graphics/SVG/1.1/DTD/svg11.dtd" >
<svg xmlns="http://www.w3.org/2000/svg">
<metadata></metadata>
<defs>
<font id="sf_hollywood_hillsregular" horiz-adv-x="983" >
<font-face units-per-em="2048" ascent="1638" descent="-410" />
<missing-glyph horiz-adv-x="819" />
<glyph horiz-adv-x="2048" />
<glyph horiz-adv-x="2048" />
<glyph unicode="&#xd;" horiz-adv-x="2048" />
<glyph unicode=" "  horiz-adv-x="819" />
<glyph unicode="&#x09;" horiz-adv-x="819" />
<glyph unicode="&#xa0;" horiz-adv-x="819" />
<glyph unicode="!" horiz-adv-x="471" d="M82 82v307h307v-307h-307zM82 1106v410h307v-410l-41 -614h-225z" />
<glyph unicode="&#x22;" horiz-adv-x="860" d="M82 1085v308h307v-308l-205 -204v204h-102zM471 1085v308h307v-308l-205 -204v204h-102z" />
<glyph unicode="'" horiz-adv-x="471" d="M82 1167v308h307v-308l-205 -204v204h-102z" />
<glyph unicode="(" horiz-adv-x="676" d="M82 41v1229l205 205h307v-308h-205v-1024h205v-305h-307z" />
<glyph unicode=")" horiz-adv-x="676" d="M82 -59v305h205v1024h-205v307h307l205 -205v-1229l-205 -202h-307z" />
<glyph unicode="," horiz-adv-x="471" d="M82 -39v305h307v-305l-205 -205v205h-102z" />
<glyph unicode="." horiz-adv-x="471" d="M82 41v307h307v-307h-307z" />
<glyph unicode="0" d="M82 287v1024l205 205h409l205 -205v-1024l-205 -205h-409zM389 389h205v819h-205v-819z" />
<glyph unicode="1" horiz-adv-x="471" d="M82 -59v1431h307v-1431h-307z" />
<glyph unicode="2" d="M82 41v666l205 204h307v256h-205v-102h-307v205l205 205h409l205 -205v-461l-205 -205h-307v-256h512v-307h-819z" />
<glyph unicode="3" horiz-adv-x="1004" d="M82 328v184h328v-102h204v256h-204v307h204v256h-204v-103h-308v205l205 205h410l205 -205v-368l-144 -144l144 -143v-369l-205 -205h-410z" />
<glyph unicode="4" d="M82 522v871h307v-564h205v564h307v-1432h-307v561h-512z" />
<glyph unicode="5" d="M82 123v205h307v-103h205v256h-307l-205 205v666h819v-308h-512v-256h307l205 -204v-461l-205 -203h-409z" />
<glyph unicode="6" d="M82 287v1024l205 205h409l205 -205v-205h-307v102h-205v-256h307l205 -204v-461l-205 -205h-409zM389 389h205v256h-205v-256z" />
<glyph unicode="7" horiz-adv-x="1044" d="M61 983v410h922v-308l-491 -1124h-349l492 1124h-266v-102h-308z" />
<glyph unicode="8" horiz-adv-x="942" d="M41 287v327l164 164l-144 144v368l205 205h410l205 -205v-368l-144 -144l164 -164v-327l-225 -226h-410zM369 369h204v256h-204v-256zM369 932h204v256h-204v-256z" />
<glyph unicode="9" d="M82 123v205h307v-103h205v256h-307l-205 205v461l205 205h409l205 -205v-1024l-205 -203h-409zM389 788h205v256h-205v-256z" />
<glyph unicode=":" horiz-adv-x="471" d="M82 41v307h307v-307h-307zM82 758v307h307v-307h-307z" />
<glyph unicode=";" horiz-adv-x="471" d="M82 -18v305h307v-305l-205 -205v205h-102zM82 696v308h307v-308h-307z" />
<glyph unicode="?" d="M82 -59v305h307v-305h-307zM82 348v256l205 205h307v256h-205v-102h-307v204l205 205h409l205 -205v-460l-205 -205h-307v-154h-307z" />
<glyph unicode="A" horiz-adv-x="881" d="M-29 143l265 1434h409l266 -1434h-307l-35 205h-258l-35 -205h-305zM365 655h151l-76 445z" />
<glyph unicode="B" horiz-adv-x="963" d="M82 61v1434h614l205 -205v-368l-143 -144l164 -164v-327l-226 -226h-614zM389 369h205v256h-205v-256zM389 932h205v256h-205v-256z" />
<glyph unicode="C" d="M82 123v1024l205 205h409l205 -205v-307h-307v204h-205v-819h205v205h307v-307l-205 -203h-409z" />
<glyph unicode="D" d="M82 -18v1431h614l205 -205v-1024l-205 -202h-614zM389 287h205v819h-205v-819z" />
<glyph unicode="E" horiz-adv-x="881" d="M82 -59v1431h717v-307h-410v-256h410v-307h-410v-256h410v-305h-717z" />
<glyph unicode="F" horiz-adv-x="819" d="M82 82v1434h717v-308h-410v-256h410v-307h-410v-563h-307z" />
<glyph unicode="G" d="M82 102v1024l205 205h409l205 -205v-307h-307v205h-205v-819h205v153h-102v308h409v-564l-205 -202h-409z" />
<glyph unicode="H" d="M82 -59v1431h307v-563h205v563h307v-1431h-307v561h-205v-561h-307z" />
<glyph unicode="I" horiz-adv-x="471" d="M82 82v1434h307v-1434h-307z" />
<glyph unicode="J" horiz-adv-x="922" d="M20 123v307h308v-205h204v1127h308v-1229l-205 -203h-410z" />
<glyph unicode="K" d="M82 -39v1432h307v-574l205 574h307l-256 -717l256 -715h-307l-205 571v-571h-307z" />
<glyph unicode="L" horiz-adv-x="819" d="M82 82v1434h307v-1127h410v-307h-717z" />
<glyph unicode="M" horiz-adv-x="1188" d="M82 -59v1431h307l205 -512l205 512h307v-1431h-307v510l-205 -510l-205 510v-510h-307z" />
<glyph unicode="N" d="M82 -39v1432h307l205 -574v574h307v-1432h-307l-205 571v-571h-307z" />
<glyph unicode="O" d="M82 307v1024l205 205h409l205 -205v-1024l-205 -205h-409zM389 410h205v819h-205v-819z" />
<glyph unicode="P" horiz-adv-x="922" d="M82 41v1434h614l205 -205v-461l-205 -205h-307v-563h-307zM389 911h205v256h-205v-256z" />
<glyph unicode="Q" d="M82 123v1024l205 205h409l205 -205v-922l-102 -102h184v-203h-696zM389 225h205v819h-205v-819z" />
<glyph unicode="R" d="M82 61v1434h614l205 -205v-368l-143 -144l143 -143v-574h-307v564h-205v-564h-307zM389 932h205v256h-205v-256z" />
<glyph unicode="S" d="M82 246v205h307v-103h205v256h-307l-205 205v461l205 205h409l205 -205v-205h-307v102h-205v-256h307l205 -204v-461l-205 -205h-409z" />
<glyph unicode="T" horiz-adv-x="963" d="M20 1065v307h922v-307h-307v-1124h-307v1124h-308z" />
<glyph unicode="U" d="M82 287v1229h307v-1127h205v1127h307v-1229l-205 -205h-409z" />
<glyph unicode="V" horiz-adv-x="881" d="M-29 1331h305l164 -956l164 956h307l-266 -1431h-409z" />
<glyph unicode="W" horiz-adv-x="1290" d="M-29 1352h305l164 -793l123 793h164l123 -793l164 793h307l-266 -1432h-328l-82 475l-82 -475h-327z" />
<glyph unicode="X" horiz-adv-x="963" d="M20 61l308 717l-308 717h308l153 -358l154 358h307l-307 -717l307 -717h-307l-154 359l-153 -359h-308z" />
<glyph unicode="Y" horiz-adv-x="963" d="M20 1393h308l153 -400l154 400h307l-307 -758v-674h-307v674z" />
<glyph unicode="Z" d="M82 82v307l450 819h-450v308h819v-308l-450 -819h450v-307h-819z" />
<glyph unicode="[" horiz-adv-x="676" d="M82 -59v1636h512v-307h-205v-1024h205v-305h-512z" />
<glyph unicode="]" horiz-adv-x="676" d="M82 -80v305h205v1024h-205v307h512v-1636h-512z" />
<glyph unicode="a" horiz-adv-x="881" d="M-29 -100l265 1431h409l266 -1431h-307l-35 202h-258l-35 -202h-305zM365 410h151l-76 444z" />
<glyph unicode="b" horiz-adv-x="963" d="M82 -18v1431h614l205 -205v-368l-143 -144l164 -164v-327l-226 -223h-614zM389 287h205v256h-205v-256zM389 850h205v256h-205v-256z" />
<glyph unicode="c" d="M82 266v1024l205 205h409l205 -205v-307h-307v205h-205v-819h205v204h307v-307l-205 -205h-409z" />
<glyph unicode="d" d="M82 61v1434h614l205 -205v-1024l-205 -205h-614zM389 369h205v819h-205v-819z" />
<glyph unicode="e" horiz-adv-x="881" d="M82 61v1434h717v-307h-410v-256h410v-307h-410v-256h410v-308h-717z" />
<glyph unicode="f" horiz-adv-x="819" d="M82 -39v1432h717v-308h-410v-256h410v-307h-410v-561h-307z" />
<glyph unicode="g" d="M82 225v1024l205 205h409l205 -205v-307h-307v205h-205v-819h205v153h-102v307h409v-563l-205 -205h-409z" />
<glyph unicode="h" d="M82 102v1434h307v-563h205v563h307v-1434h-307v564h-205v-564h-307z" />
<glyph unicode="i" horiz-adv-x="471" d="M82 -39v1432h307v-1432h-307z" />
<glyph unicode="j" horiz-adv-x="922" d="M20 266v307h308v-204h204v1126h308v-1229l-205 -205h-410z" />
<glyph unicode="k" d="M82 82v1434h307v-574l205 574h307l-256 -717l256 -717h-307l-205 573v-573h-307z" />
<glyph unicode="l" horiz-adv-x="819" d="M82 -100v1431h307v-1126h410v-305h-717z" />
<glyph unicode="m" horiz-adv-x="1188" d="M82 61v1434h307l205 -512l205 512h307v-1434h-307v512l-205 -512l-205 512v-512h-307z" />
<glyph unicode="n" d="M82 82v1434h307l205 -574v574h307v-1434h-307l-205 573v-573h-307z" />
<glyph unicode="o" d="M82 143v1024l205 205h409l205 -205v-1024l-205 -202h-409zM389 246h205v819h-205v-819z" />
<glyph unicode="p" horiz-adv-x="922" d="M82 -80v1432h614l205 -205v-461l-205 -205h-307v-561h-307zM389 788h205v256h-205v-256z" />
<glyph unicode="q" d="M82 225v1024l205 205h409l205 -205v-921l-102 -103h184v-205h-696zM389 328h205v819h-205v-819z" />
<glyph unicode="r" d="M82 -80v1432h614l205 -205v-369l-143 -143l143 -143v-572h-307v561h-205v-561h-307zM389 788h205v256h-205v-256z" />
<glyph unicode="s" d="M82 143v205h307v-102h205v256h-307l-205 205v460l205 205h409l205 -205v-204h-307v102h-205v-256h307l205 -205v-461l-205 -202h-409z" />
<glyph unicode="t" horiz-adv-x="963" d="M20 1208v308h922v-308h-307v-1126h-307v1126h-308z" />
<glyph unicode="u" d="M82 164v1229h307v-1127h205v1127h307v-1229l-205 -203h-409z" />
<glyph unicode="v" horiz-adv-x="881" d="M-29 1454h305l164 -956l164 956h307l-266 -1434h-409z" />
<glyph unicode="w" horiz-adv-x="1290" d="M-29 1495h305l164 -793l123 793h164l123 -793l164 793h307l-266 -1434h-328l-82 478l-82 -478h-327z" />
<glyph unicode="x" horiz-adv-x="963" d="M20 -39l308 715l-308 717h308l153 -359l154 359h307l-307 -717l307 -715h-307l-154 356l-153 -356h-308z" />
<glyph unicode="y" horiz-adv-x="963" d="M20 1475h308l153 -400l154 400h307l-307 -758v-676h-307v676z" />
<glyph unicode="z" d="M82 -80v305l450 819h-450v308h819v-308l-450 -819h450v-305h-819z" />
<glyph unicode="{" horiz-adv-x="758" d="M41 614v82l123 103v471l205 205h307v-308h-205v-409l-102 -103l102 -102v-410h205v-305h-307l-205 203v471z" />
<glyph unicode="}" horiz-adv-x="758" d="M82 -80v305h205v410l102 102l-102 103v409h-205v307h307l205 -204v-471l123 -103v-82l-123 -102v-471l-205 -203h-307z" />
<glyph unicode="&#x2000;" horiz-adv-x="788" />
<glyph unicode="&#x2001;" horiz-adv-x="1577" />
<glyph unicode="&#x2002;" horiz-adv-x="788" />
<glyph unicode="&#x2003;" horiz-adv-x="1577" />
<glyph unicode="&#x2004;" horiz-adv-x="525" />
<glyph unicode="&#x2005;" horiz-adv-x="394" />
<glyph unicode="&#x2006;" horiz-adv-x="262" />
<glyph unicode="&#x2007;" horiz-adv-x="262" />
<glyph unicode="&#x2008;" horiz-adv-x="197" />
<glyph unicode="&#x2009;" horiz-adv-x="315" />
<glyph unicode="&#x200a;" horiz-adv-x="87" />
<glyph unicode="&#x2018;" horiz-adv-x="471" d="M82 942v307l205 205v-205h102v-307h-307z" />
<glyph unicode="&#x2019;" horiz-adv-x="471" d="M82 1085v308h307v-308l-205 -204v204h-102z" />
<glyph unicode="&#x201a;" horiz-adv-x="471" d="M82 20v308h307v-308l-205 -202v202h-102z" />
<glyph unicode="&#x201c;" horiz-adv-x="860" d="M82 881v307l205 205v-205h102v-307h-307zM471 881v307l205 205v-205h102v-307h-307z" />
<glyph unicode="&#x201d;" horiz-adv-x="860" d="M82 1085v308h307v-308l-205 -204v204h-102zM471 1085v308h307v-308l-205 -204v204h-102z" />
<glyph unicode="&#x201e;" horiz-adv-x="860" d="M82 20v308h307v-308l-205 -202v202h-102zM471 20v308h307v-308l-205 -202v202h-102z" />
<glyph unicode="&#x202f;" horiz-adv-x="315" />
<glyph unicode="&#x205f;" horiz-adv-x="394" />
</font>
</defs>
</svg>
