<?xml version="1.0" encoding="UTF-8" standalone="no"?>
<?xml-stylesheet type="text/css" href="../css/svg.css" ?><svg
   xmlns:dc="http://purl.org/dc/elements/1.1/"
   xmlns:cc="http://creativecommons.org/ns#"
   xmlns:rdf="http://www.w3.org/1999/02/22-rdf-syntax-ns#"
   xmlns:svg="http://www.w3.org/2000/svg"
   xmlns="http://www.w3.org/2000/svg"
   xmlns:sodipodi="http://sodipodi.sourceforge.net/DTD/sodipodi-0.dtd"
   xmlns:inkscape="http://www.inkscape.org/namespaces/inkscape"
   alt="Map of US with places I've lived marked on it - cities of the U.S. including L.A. and N.Y.C."
   version="1.1"
   width="600"
   height="379.202"
   id="us_map"
   inkscape:version="0.48.5 r10040"
   sodipodi:docname="map.svg">
  <metadata
     id="metadata3111">
    <rdf:RDF>
      <cc:Work
         rdf:about="">
        <dc:format>image/svg+xml</dc:format>
        <dc:type
           rdf:resource="http://purl.org/dc/dcmitype/StillImage" />
        <dc:title />
      </cc:Work>
    </rdf:RDF>
  </metadata>
  <defs
     id="defs3109">
    <clipPath
       clipPathUnits="userSpaceOnUse"
       id="clipPath4030">
      <path
         d="m 607.51048,549.23832 1.81151,9.15341 2.98207,12.1847 4.26543,11.72699 2.97287,7.8854 3.87767,6.87445 3.23138,4.65036 1.29255,3.63942 -0.90478,1.61751 -0.64628,1.61751 2.32659,9.30074 2.3266,3.6394 2.06809,6.67226 2.84362,7.27883 3.61915,10.31167 1.03405,9.50291 0.38776,14.96204 0.51702,2.22408 -0.25851,4.24598 -1.93883,1.61753 0.25851,2.42627 -0.51702,2.42628 0.25851,3.03283 0.38777,2.42628 -2.19734,4.0438 -2.45585,1.8197 -3.10213,0.20219 -1.16331,2.0219 -1.93882,1.21314 -1.03405,-0.60657 -0.90479,-1.21314 -0.25851,-3.63941 -0.64628,-4.24598 -2.71436,-6.47008 -2.84362,-2.83065 -3.10213,-0.40437 -0.64628,1.61751 -2.45585,-5.45912 -0.51702,-4.44817 -2.06809,-5.05474 -1.42181,-1.41533 -1.29255,2.62847 -1.42181,-0.40438 -1.68032,-6.26789 -2.3266,-4.85255 -2.3266,-6.67225 -2.06808,-3.8416 -2.84362,-4.65036 1.68032,-3.03285 2.5851,-6.87446 -0.12925,-2.02189 -3.61915,-1.21313 -1.29256,0.80876 0.25852,0.80875 2.06808,1.21314 -1.1633,5.66132 -0.64627,0.60656 -1.42181,-5.05474 -1.03404,-6.06569 -0.25851,-3.43723 1.16329,-5.86349 0,-11.9292 -2.45585,-4.65036 -1.03404,-3.8416 -4.13618,-1.61751 -1.55106,-0.80876 -1.29256,-3.23504 -2.71436,-2.0219 -0.90479,-4.24598 -2.19734,-1.21314 -1.93884,-4.65036 -3.36064,-1.8197 -2.32659,-1.81971 -2.06809,0 -3.23139,1.01095 -0.12925,2.42627 0.64628,1.21314 -0.38777,1.41533 -2.45585,-0.20219 -2.97287,4.44818 -2.84363,2.42626 -3.10213,0 -2.58511,1.61753 -0.25851,-3.43723 -1.29255,-2.42628 -2.3266,-1.41532 -1.29255,-1.81972 -6.46277,-4.85255 -6.07501,-2.22407 -3.48989,0.80875 -4.78245,0.60657 -4.78246,2.62847 -2.78182,0.76663 -0.19023,-10.06787 -2.06809,-2.42626 -1.42181,-2.2241 0.25851,-3.84161 8.1431,-1.61752 20.42239,-3.63941 5.42874,-0.80876 4.34635,0.35054 2.06808,4.85256 1.1633,1.8197 6.47487,0.64439 8.65092,-0.80876 17.20021,-1.61752 4.35411,-0.84344 4.08376,0.25578 0.34127,3.63942 1.7854,1.01094 0.18784,-5.79076 -1.22188,-5.21913 1.04613,-1.80081 4.44119,0.56876 4.13618,0.40438 z m 10.03067,165.59976 1.93884,-0.80875 1.03404,-0.30329 1.16331,-2.93176 1.87421,-2.02191 1.03405,0.60658 1.35718,0.40438 0.32314,1.31423 -2.77899,1.51643 -3.36067,1.81971 -1.8742,1.51643 -0.71091,-1.11205 z m 10.79287,-6.2679 0.96942,1.31424 2.19735,-2.62847 4.26544,-5.25695 2.97288,-4.85257 2.00347,-8.2898 0.77554,-2.123 0.12925,-4.246 -0.58165,0.60657 -0.77553,3.53833 -1.16331,5.76242 -2.58512,6.5712 -3.4899,5.25694 -2.71437,2.42628 -2.00347,1.92081 z"
         id="path4032"
         class="state"
         style="fill:#b8c9d9;fill-opacity:0.78431373;stroke:#ffffff;stroke-width:0.75;stroke-opacity:1"
         inkscape:connector-curvature="0" />
    </clipPath>
    <clipPath
       clipPathUnits="userSpaceOnUse"
       id="clipPath4058">
      <path
         d="m 115.69025,478.01731 3.15028,-0.61112 1.18817,-2.51572 0.43538,-3.67844 -2.83961,-0.73807 -0.41111,-0.83574 0.38179,-2.54182 -0.12735,-0.73751 1.53719,-0.77492 2.43285,-3.54285 0.46498,-6.2474 1.1033,-4.25504 1.55375,-2.70935 2.81351,-1.98821 1.32277,-2.00717 0.0549,-2.63754 -0.79422,-0.72542 -0.81806,-1.34167 -0.92365,-7.31469 -2.14695,-6.04102 0.45239,-4.38372 -1.93457,-1.28736 -55.217892,-130.2965 15.11316,-84.54956 -53.63362,-19.63352 -1.204837,5.91989 -0.129256,9.30072 -4.136173,14.75984 -2.455853,3.23503 -0.25851,1.41533 -1.421811,1.01095 -1.163298,5.25693 -0.646277,4.0438 2.197342,5.25692 1.292554,5.25693 0.904788,4.44817 -0.258511,8.08759 -1.421809,3.8416 -0.517022,7.27884 -0.775533,4.65036 1.42181,4.85255 2.197342,5.6613 1.809576,6.0657 1.034043,5.05474 -0.25851,4.04379 -0.258511,0.60657 0,2.62846 4.52394,7.88539 -0.387766,3.03285 -0.517022,2.83066 -0.517022,2.42627 0.129255,10.31168 1.680321,4.65036 1.551065,3.23502 2.197342,0.60658 0.775533,3.43722 -0.904788,4.44817 -1.680321,2.0219 -0.904788,0 -0.646277,4.85255 0.387766,3.63942 2.585109,5.45912 1.292554,6.67226 1.163299,5.86349 1.034043,3.84161 2.714364,7.27883 1.163299,3.23502 0.387767,3.63942 1.292553,1.21313 0,3.03285 -0.646277,2.42628 -1.421809,8.89635 -0.387767,2.42627 1.938832,3.43722 3.360641,0.60657 3.619152,2.22409 3.10213,2.62846 2.326598,0 2.326597,3.8416 2.068086,6.0657 0.904789,2.83065 3.10213,2.62847 3.877663,1.01094 1.163298,2.62847 0.517022,4.0438 -1.163299,0.80875 0.258511,1.21314 2.58511,1.01094 2.197342,0.2022 2.526486,-2.10975 3.102132,5.25693 0.646277,2.83066 2.06809,5.25693 0.25851,4.04379 0,11.727 0.387765,2.22408 8.013837,1.81971 15.769156,3.43722 11.06978,1.68808 z m -70.468399,-54.6767 1.034047,1.92081 -0.129255,1.61753 -2.585118,-0.10106 -0.452396,-1.51643 -0.517023,-1.81971 2.649745,-0.10106 z m 1.55107,0 0.96942,-0.80875 2.843629,2.62847 2.455862,1.51642 -0.710908,0.80878 -3.619164,-0.3033 -1.292559,-2.0219 -0.64628,-1.81972 z m 16.544754,24.76833 1.421809,2.93175 0.646286,1.21315 1.22793,0.70766 0.45239,-1.81972 -0.775532,-2.22409 -2.132719,-2.52737 -0.840164,0.20218 0,1.51644 z m -1.163308,10.81717 1.421819,3.94271 0.969419,2.4263 -1.163307,0.30327 -1.034043,-1.51642 c 0,0 -0.581654,-1.81971 -0.581654,-2.3252 0,-0.50546 0,-2.72956 0,-2.72956 l 0.387766,-0.10106 z"
         id="path4060"
         class="state"
         style="fill:#b8c9d9;fill-opacity:0.78431373;stroke:#ffffff;stroke-width:0.75;stroke-opacity:1"
         inkscape:connector-curvature="0" />
    </clipPath>
  </defs>
  <sodipodi:namedview
     pagecolor="#ffffff"
     bordercolor="#666666"
     borderopacity="1"
     objecttolerance="10"
     gridtolerance="10"
     guidetolerance="10"
     inkscape:pageopacity="0"
     inkscape:pageshadow="2"
     inkscape:window-width="1218"
     inkscape:window-height="697"
     id="namedview3107"
     showgrid="false"
     inkscape:zoom="1.5109612"
     inkscape:cx="264.01393"
     inkscape:cy="127.15"
     inkscape:window-x="54"
     inkscape:window-y="-8"
     inkscape:window-maximized="1"
     inkscape:current-layer="fl"
     fit-margin-top="0"
     fit-margin-left="0"
     fit-margin-right="0"
     fit-margin-bottom="0" />
  <style
     type="text/css"
     id="style3051">
.state {
	fill:#d3d3d3;
	stroke:#fff;
	stroke-width:0.75;
	stroke-opacity:1;
}
</style>
  <g
     id="oh"
     inkscape:label="#g3057">
    <path
       style="fill:#bacee0;fill-opacity:0.99470901;stroke:#ffffff;stroke-width:0.48469549000000001;stroke-opacity:1"
       class="state"
       id="OH"
       d="m 475.85787,120.26365 -3.93802,2.61952 -2.50739,1.46265 -2.19397,2.40292 -2.61187,2.5074 -2.0895,0.52237 -1.88055,0.31342 -3.55214,1.6716 -1.35817,0.10448 -2.19397,-1.98503 -3.3432,0.41791 -1.67159,-0.94028 -1.53879,-0.87299 -3.16188,0.45459 -6.58192,1.04475 -7.24256,1.41191 0.83581,9.45497 1.14922,8.88038 1.67159,15.14886 0.36567,3.1222 2.66411,-0.0834 1.56713,-0.52238 2.17389,0.97142 1.33808,2.82082 3.32109,-0.0111 1.22256,1.36923 1.13817,-0.0422 1.64047,-0.86693 1.61834,0.24008 3.50356,0.31194 1.11607,-1.37827 1.51591,-0.83579 1.33807,-0.44001 0.4179,1.77608 1.14923,0.62685 2.2462,1.51488 1.41042,-0.0522 0.86154,-0.31827 0.11937,-1.78467 1.02456,-0.94028 0.0641,-3.09735 c 0,0 0.66174,-2.65552 0.66174,-2.65552 l 0.83967,-0.38859 0.85393,0.74174 0.34779,1.09672 1.11101,-0.67045 0.28369,-0.94402 -0.72167,-1.22987 0.0428,-1.49573 0.48404,-0.69299 1.39125,-2.13685 0.67871,-0.9974 1.35818,0.31343 1.46265,-1.04476 1.98502,-2.19397 1.79111,-2.63592 0.20701,-3.26718 0.31343,-3.23873 -0.11425,-3.42962 -0.61708,-1.87079 0.227,-0.7689 1.1661,-1.13103 -1.47915,-5.84694 -1.88055,-12.51275 z"
       inkscape:connector-curvature="0" />
    <g
       id="text3129-1"
       style="font-size:74.28102875px;font-style:normal;font-weight:normal;line-height:100%;letter-spacing:0px;word-spacing:0px;fill:#000000;fill-opacity:1;stroke:none;font-family:Sans"
       transform="matrix(0.80828177,0,0,0.5167169,0.64626068,-4.6768423)">
      <path
         inkscape:connector-curvature="0"
         id="path4078"
         d="m 531.73525,314.57577 6.52861,-0.87048 c 0.74957,3.69956 2.02506,6.3654 3.82649,7.99754 1.80139,1.63216 3.99573,2.44823 6.58301,2.44823 3.07084,0 5.66414,-1.06392 7.77992,-3.19176 2.11572,-2.12784 3.1736,-4.76345 3.17363,-7.90687 -3e-5,-2.9983 -0.97932,-5.47071 -2.93788,-7.41722 -1.9586,-1.94647 -4.44914,-2.91971 -7.47162,-2.91974 -1.2332,3e-5 -2.76863,0.24183 -4.6063,0.7254 l 0.7254,-5.73066 c 0.43523,0.0484 0.78584,0.0726 1.05183,0.0725 2.78069,3e-5 5.28332,-0.72537 7.5079,-2.17621 2.22454,-1.45076 3.33682,-3.68741 3.33684,-6.70995 -2e-5,-2.39378 -0.81005,-4.37654 -2.43009,-5.94829 -1.62008,-1.57165 -3.71165,-2.3575 -6.27471,-2.35755 -2.53892,5e-5 -4.65467,0.79799 -6.34726,2.39382 -1.69261,1.59593 -2.78071,3.98975 -3.2643,7.18147 l -6.52861,-1.16064 c 0.79794,-4.37654 2.61144,-7.76779 5.44051,-10.17375 2.82905,-2.40586 6.34724,-3.60881 10.55458,-3.60887 2.90158,6e-5 5.57347,0.62269 8.01567,1.86791 2.44216,1.24532 4.31006,2.94397 5.60372,5.09594 1.2936,2.15207 1.94042,4.43708 1.94045,6.85504 -3e-5,2.29714 -0.61662,4.38871 -1.84977,6.27471 -1.23321,1.88608 -3.0588,3.38524 -5.47678,4.49749 3.14338,0.72543 5.58556,2.23063 7.32655,4.51562 1.74093,2.28503 2.61141,5.14432 2.61144,8.57786 -3e-5,4.64257 -1.69263,8.57787 -5.0778,11.8059 -3.38523,3.22803 -7.66509,4.84204 -12.83959,4.84205 -4.66676,-10e-6 -8.54161,-1.39036 -11.62455,-4.17106 -3.08296,-2.7807 -4.84205,-6.38352 -5.27729,-10.80847 z" />
    </g>
  </g>
  <g
     id="ky"
     inkscape:label="#g3052">
    <path
       inkscape:connector-curvature="0"
       style="fill:#bacee0;fill-opacity:0.99470903;stroke:#ffffff;stroke-width:0.48469549;stroke-opacity:1"
       class="state"
       id="KY"
       d="m 470.26498,185.71729 -1.48208,1.55211 -2.31245,2.58119 -3.18254,3.5316 -0.7857,1.10884 -0.0404,1.35816 -2.83054,1.39857 -3.65662,2.19398 -4.67367,1.16252 -33.52018,3.16594 -10.18478,1.14922 -2.9865,0.33135 -2.49996,-0.0179 -0.14667,2.7274 -5.28603,0.0934 -4.49243,0.4179 -5.16199,-0.0389 0.78054,-0.85311 1.61536,-0.99579 0.14775,-2.06851 0.591,-1.182 -1.03843,-1.64079 0.5182,-1.23229 1.46265,-1.14922 1.35817,-0.41791 1.77607,0.83581 2.29845,0.83579 0.73133,-0.20895 0.10448,-1.46265 -0.83581,-1.56712 0.20895,-1.46265 1.2537,-0.94027 1.67161,-0.41791 1.04474,-0.41789 -0.52237,-1.14923 -0.4179,-1.2537 0.97367,-0.64355 c 0.002,-0.024 0.81039,-2.27631 0.80026,-2.3639 l 1.97318,-0.95561 3.43797,-0.62684 2.90432,-0.31343 0.89988,1.05175 0.98766,0.56276 1.02805,-2.00871 2.05969,-0.82891 1.42506,0.95907 0.26533,0.64564 0.7584,-0.17062 -0.10448,-1.90836 2.02335,-1.13044 1.38823,-0.69374 0.98837,1.07331 2.14439,-0.0286 0.37956,-1.01544 -0.2375,-1.46264 1.68062,-2.58408 3.08689,-2.22177 0.45623,-3.12523 1.89033,-0.29464 2.45027,-1.06354 1.57902,-1.10396 -0.12817,-1.01136 -0.73832,-0.94027 0.36566,-1.93549 2.70451,-0.0759 1.48634,-0.48198 2.16329,0.92357 1.32749,2.82083 3.31679,0.007 1.32549,1.42706 1.044,-0.0954 1.68137,-0.82603 3.38451,0.37055 1.66407,0.14057 1.09061,-1.32887 1.69188,-0.92149 1.21612,-0.45697 0.4179,1.8332 1.32059,0.68396 1.70791,1.34583 0.0759,3.6664 0.52237,1.01618 1.67363,1.00577 0.49868,1.48285 2.68838,2.22116 1.1667,2.34155 1.58757,1.07184 z" />
    <g
       transform="scale(1.2507055,0.79954873)"
       style="font-size:48.0049057px;font-style:normal;font-weight:normal;line-height:100%;letter-spacing:0px;word-spacing:0px;fill:#000000;fill-opacity:1;stroke:none;font-family:Sans"
       id="text3129">
      <path
         d="m 355.52688,253.54047 -4.21918,0 0,-26.88556 c -1.01574,0.96887 -2.34791,1.93772 -3.9965,2.90654 -1.64861,0.96888 -3.12923,1.69551 -4.44186,2.17991 l 0,-4.07854 c 2.35961,-1.10946 4.42232,-2.45335 6.18813,-4.03166 1.76579,-1.57825 3.01592,-3.10966 3.75038,-4.59422 l 2.71903,0 z"
         style=""
         id="path3089" />
    </g>
  </g>
  <path
     d="m 127.56716,115.25332 -15.2769,83.25308 -1.1841,0.22564 -1.01642,1.55502 -1.53354,0.007 -0.95126,-1.773 -1.69221,-0.24456 -0.49822,-0.71582 -0.67071,-0.0349 -1.79555,1.06264 -0.20051,4.38519 -0.234,3.73356 -0.22527,5.5532 -0.9352,1.35014 -1.57618,-0.69411 -44.643614,-67.34113 12.271919,-43.67747 60.161765,13.35563 z"
     id="NV"
     class="state"
     style="fill:#d3d3d3;stroke:#ffffff;stroke-width:0.48469549;stroke-opacity:1"
     inkscape:connector-curvature="0" />
  <path
     d="m 151.28155,330.93245 1.2537,-2.29845 1.46266,-0.20895 0.20895,0.52237 -1.35818,1.98503 -1.56713,0 z m 6.58195,-2.40293 3.97006,1.6716 1.35817,-0.20895 1.04476,-2.50741 -0.4179,-2.19397 -2.71636,-0.31343 -2.61189,1.14923 -0.62684,2.40293 z m 19.8503,6.47747 2.40293,3.55215 1.56713,-0.20894 0.73132,-0.31343 0.94028,0.8358 2.40293,-0.10447 0.62686,-0.94028 -1.88056,-1.14922 -1.2537,-2.40294 -1.35818,-2.29845 -3.76111,1.88055 -0.4179,1.14923 z m 13.05941,5.74615 0.8358,-1.25371 3.02978,0.62685 0.41791,-0.31343 3.97005,0.4179 -0.20895,0.83581 -1.6716,0.94027 -2.82083,-0.20895 -3.55216,-1.04474 z m 3.44768,3.3432 1.25371,2.50741 1.98502,-0.73133 0.20896,-1.04476 -1.04475,-1.35818 -2.40294,-0.20894 0,0.8358 z m 4.49244,-0.73133 1.46266,-1.88055 3.02978,1.56713 2.82083,0.73132 2.82083,1.77608 0,1.2537 -2.29845,1.14924 -3.13427,0.62684 -1.56712,-0.94027 -3.13426,-4.28349 z m 10.76096,10.02962 1.04475,-0.83579 2.19398,1.04476 4.91034,2.29845 2.19398,1.35817 1.04475,1.56713 1.2537,2.82083 2.61188,1.67161 -0.20895,0.83581 -2.5074,2.0895 -2.71636,0.94028 -0.94028,-0.4179 -1.98503,1.14922 -1.56712,2.08951 -1.46266,1.88055 -1.14923,-0.10447 -2.29846,-1.67161 -0.20894,-2.9253 0.41789,-1.56713 -1.04475,-3.65664 -1.35818,-1.14923 -0.10447,-1.6716 1.46265,-0.62685 1.35818,-1.98503 0.31343,-0.62685 -1.04475,-1.14924 -0.20895,-1.35818 z"
     id="HI"
     class="state"
     inkscape:connector-curvature="0"
     style="fill:#d3d3d3;stroke:#ffffff;stroke-width:0.48469549;stroke-opacity:1" />
  <path
     d="m 102.80502,288.51548 -0.20895,55.16296 1.04475,0.62685 1.98503,0.10447 0.94027,-0.73132 1.67161,0 0.10448,1.88055 4.49243,4.38797 0.31343,1.6716 2.19398,-1.25371 0.41791,-0.10447 0.20895,-1.98503 0.94027,-1.04475 0.73133,-0.10448 1.2537,-0.94028 1.98503,1.35818 0.4179,1.88056 1.2537,0.73132 0.73133,1.56714 2.50742,1.14922 2.19397,3.86559 1.77608,2.5074 1.46265,1.77609 0.94029,2.40292 3.23872,1.14924 3.34322,1.35817 0.62685,2.82084 0.31342,1.98503 -0.62685,2.19398 -1.14923,1.46265 -1.04475,-0.52237 -0.94028,-1.98504 -1.77608,-0.94027 -1.14922,-0.73133 -0.52238,0.52238 0.94028,1.77608 0.10447,2.40293 -0.73133,0.31342 -1.2537,-1.2537 -1.35817,-0.8358 0.31342,1.04475 0.8358,1.14923 -0.52238,0.52238 c 0,0 -0.52237,-0.20895 -0.83579,-0.62686 -0.31344,-0.4179 -1.35818,-2.19398 -1.35818,-2.19398 l -0.62686,-1.46265 c 0,0 -0.20895,0.8358 -0.62685,0.62685 -0.4179,-0.20895 -0.8358,-0.94027 -0.8358,-0.94027 l 1.14922,-1.25371 -0.94027,-0.94028 0,-3.23873 -0.52238,0 -0.52237,2.19397 -0.73133,0.31344 -0.62685,-2.40294 -0.4179,-2.40293 -0.52238,-0.31343 0.20895,3.65664 0,0.73133 -0.94028,-0.8358 -2.29845,-3.86559 -1.35818,-0.31342 -0.4179,-2.40294 -1.04475,-1.88055 -1.04476,-0.73133 0,-1.46265 1.35818,-0.83581 -0.31342,-0.20895 -1.67161,0.4179 -2.19398,-1.56712 -1.67161,-1.88056 -3.13425,-1.67161 -2.61189,-1.6716 0.83581,-2.0895 0,-1.04476 -1.14923,1.04476 -1.88056,0.73132 -2.40293,-0.73132 -3.656641,-1.56713 -3.552152,0 -0.417898,0.31343 -4.179013,-2.50742 -1.358181,-0.20895 -1.77608,-3.76111 -2.298458,0.20895 -2.298458,0.94028 0.31343,2.92531 0.731321,-1.88055 0.62686,0.20895 -0.940283,2.82083 2.089503,-1.77608 0.417904,1.04475 -2.507407,2.82083 -0.835803,-0.20895 -0.313423,-1.2537 -0.835803,-0.52238 -0.835802,0.73133 -1.77608,-1.14923 -1.985035,1.35819 -1.149219,1.35817 -2.193984,1.35818 -3.029786,-0.10448 -0.313424,-1.35817 2.402927,-0.41791 0,-0.83579 -1.462656,-0.41791 0.62686,-1.56713 1.462649,-2.50741 0,-1.14922 0.104475,-0.52238 2.820837,-1.46266 0.626847,0.83581 1.776086,0 -0.835803,-1.6716 -2.402939,-0.20896 -3.238729,1.77608 -1.56713,2.19398 -1.149226,1.67161 -0.731328,1.46266 -2.716357,0.94027 -1.985035,1.6716 -0.208949,1.04476 1.462654,0.62685 0.522381,1.35817 -1.776086,2.08951 -4.179005,2.71636 -5.014819,2.71636 -1.358179,0.73132 -3.447684,0.73134 -3.447688,1.46265 1.149229,0.8358 -0.940279,0.94027 -0.313425,0.73133 -1.776078,-0.62685 -2.089503,0.10447 -0.52238,1.46266 -0.626849,0 0.208949,-1.56713 -2.298459,0.83581 -1.880553,0.62685 -2.193981,-0.83581 -1.880555,1.2537 -2.089505,0 -1.35818,0.83581 -1.044752,0.52237 -1.358179,-0.20894 -1.671605,-0.73133 -1.462654,0.4179 -0.626851,0.62685 -1.044753,-0.73132 0,-1.25371 1.985031,-0.8358 4.074535,0.4179 2.820833,-1.04476 1.358179,-1.35817 1.880555,-0.4179 1.149228,-0.52238 1.77608,0.10447 1.044753,0.83581 0.626849,-0.20895 1.462654,-1.77608 1.985035,-0.62686 2.193977,-0.4179 0.835805,-0.20895 0.4179,0.31343 0.52238,0 0.835798,-2.40294 2.611884,-0.94027 1.253705,-2.40293 1.462655,-2.92531 1.044755,-0.94028 0.208949,-1.6716 -1.044754,0.8358 -2.193986,0.4179 -0.4179,-1.56713 -0.835798,-0.20894 -0.626856,0.62684 -0.104474,1.88056 -0.94028,-0.10448 -0.940273,-3.76111 -0.835805,0.8358 -0.731325,-0.31342 -0.208949,-1.2537 -2.611883,0.10447 -1.358179,0.73133 -1.671604,-0.20895 0.940273,-0.94028 0.313424,-1.6716 -0.417898,-1.25371 0.940279,-0.62685 0.835799,-0.10447 -0.417899,-1.14923 0,-2.82083 -0.626849,-0.62686 -0.522381,0.94028 -3.970058,0 -0.940278,-0.8358 -0.417901,-2.5074 -1.358179,-2.29847 0,-0.62685 1.358179,-0.52237 0.104475,-1.35819 0.731327,-0.73132 -0.522376,-0.31342 -0.835803,0.31342 -0.731326,-1.77608 0.626851,-3.23874 2.925308,-2.0895 1.671602,-1.04475 1.253704,-2.40293 1.776086,-0.83581 1.671603,0.73134 0.20895,1.56713 1.567128,-0.20897 2.089503,-1.56712 1.044755,0.4179 0.626848,0.4179 1.044755,0 1.462655,-0.8358 0.522381,-2.82084 c 0,0 0.20895,-1.88054 0.626849,-2.19397 0.417899,-0.31343 0.626849,-0.62685 0.626849,-0.62685 l -0.731323,-1.25371 -1.671605,0.52238 -2.08951,0.52237 -1.253704,-0.31342 -2.298453,-1.14923 -3.238732,-0.10448 -2.298459,-2.40292 0.313424,-2.50741 0.417906,-1.56713 -1.358179,-1.14923 -1.253705,-2.40294 0.313425,-0.52237 4.387962,-0.31342 1.358179,0 0.626849,0.62684 0.417905,0 -0.104474,-1.04475 2.507402,-0.4179 1.671603,0.20895 0.94028,0.73133 -0.94028,1.35818 -0.313424,0.94027 1.776085,1.04476 3.238734,1.14923 1.14923,-0.62685 -1.462654,-2.82083 -0.626856,-2.08951 0.626856,-0.52238 -2.193985,-1.2537 -0.313425,-0.73133 0.313425,-1.04475 -0.522375,-2.50741 -1.88056,-3.02978 -1.567129,-2.71636 1.88056,-1.25371 2.089504,0 1.14923,0.41791 2.716358,-0.10448 2.402929,-2.29845 0.73133,-1.98503 2.402934,-1.56713 1.044748,0.62685 1.776079,-0.4179 2.402932,-1.35819 0.731334,-0.10447 0.626847,0.52239 2.925306,-0.10449 1.776079,-1.98502 0.731328,0 2.298458,1.56712 1.253701,1.35818 -0.313424,0.73133 0.417898,0.73133 1.044758,-1.04475 2.507408,0.20894 0.208949,2.40293 1.253707,0.94028 4.59691,0.4179 4.074538,2.71636 0.94027,-0.62685 3.343217,1.67161 1.358175,-0.4179 1.253706,-0.52239 3.134255,1.25371 2.820836,1.88055 z m -74.38641,18.70108 1.358179,3.44769 -0.104475,0.62685 -1.880556,-0.20896 -1.149228,-2.61188 -1.149227,-0.94027 -1.56713,0 -0.104475,-1.67161 1.149228,-1.56713 0.731327,1.56713 0.940277,0.94028 1.77608,0.4179 z m -1.671604,21.62639 2.402932,0.52237 2.402931,0.62685 0.522377,0.62686 -1.044753,2.40293 -1.985031,-0.10448 -2.193981,-2.29845 -0.104475,-1.77608 z m -13.372837,-9.08935 0.731328,1.6716 0.731326,1.04476 -0.731326,0.52237 -1.35818,-1.98503 0,-1.2537 0.626852,0 z m -8.8803991,47.22283 2.1939808,-1.46266 2.1939809,-0.62685 1.6716054,0.20895 0.313425,1.04475 1.253704,0.31343 1.253703,-1.2537 -0.208951,-1.04475 1.776081,-0.41791 1.880555,1.67161 -0.731328,1.14922 -2.820832,0.73133 -1.77608,-0.31342 -2.4029314,-0.73133 -2.820833,0.94028 -1.0447528,0.20895 -0.7313269,-0.4179 z m 31.6560121,-2.92531 1.044752,1.2537 1.358177,-1.04475 -0.940275,-0.83581 -1.462654,0.62686 z m 1.880555,1.98502 0.731324,-1.46264 1.358179,0.20894 -0.522374,1.2537 -1.567129,0 z m 15.25339,-1.2537 0.940279,1.14923 0.626857,-0.73132 -0.522381,-1.25371 -1.044755,0.8358 z m 5.641668,-8.04459 0.73133,3.76111 1.880553,0.52238 3.238732,-1.88056 2.820833,-1.67161 -1.044745,-1.56712 0.313424,-1.56713 -1.358182,0.8358 -1.880552,-0.52238 1.044748,-0.73132 1.253702,0.52237 2.507408,-1.14923 0.31343,-0.94027 -1.567131,-0.52238 0.522373,-1.25371 -1.77608,1.25371 -3.029781,2.29846 -3.134257,1.88055 -0.835805,0.73133 z m 27.372526,-12.85046 1.56713,-0.94028 -0.626853,-1.14923 -1.149226,0.62685 0.208949,1.46266 z"
     id="AK"
     class="state"
     inkscape:connector-curvature="0"
     style="fill:#d3d3d3;stroke:#ffffff;stroke-width:0.48469549;stroke-opacity:1" />
  <g
     id="fl"
     inkscape:label="#g3067">
    <path
       style="fill:#bacee0;fill-opacity:0.99470901;stroke:#ffffff;stroke-width:0.48469549000000001;stroke-opacity:1"
       class="state"
       id="FL"
       d="m 491.62543,279.27738 1.46421,4.72973 2.41036,6.29603 3.44766,6.05954 2.40292,4.07452 3.13425,3.55214 2.61187,2.40292 1.04475,1.88055 -0.73133,0.8358 -0.52237,0.83579 1.88054,4.80585 1.88055,1.88054 1.6716,3.44767 2.29844,3.7611 2.9253,5.32821 0.8358,4.91031 0.31342,7.73114 0.4179,1.14922 -0.20895,2.19397 -1.56712,0.8358 0.20895,1.2537 -0.4179,1.2537 0.20895,1.56712 0.31342,1.2537 -1.77607,2.08949 -1.98502,0.94027 -2.50739,0.10448 -0.94028,1.04475 -1.56712,0.62685 -0.8358,-0.31343 -0.73132,-0.62684 -0.20895,-1.88055 -0.52238,-2.19397 -2.19397,-3.3432 -2.29844,-1.46264 -2.5074,-0.20895 -0.52237,0.8358 -1.98502,-2.82082 -0.4179,-2.29845 -1.6716,-2.61187 -1.14922,-0.73133 -1.04475,1.35818 -1.14922,-0.20895 -1.35818,-3.23872 -1.88054,-2.5074 -1.88055,-3.44766 -1.67159,-1.98502 -2.29845,-2.40292 1.35817,-1.56713 2.0895,-3.55214 -0.10448,-1.04475 -2.92529,-0.62684 -1.04475,0.41789 0.20895,0.4179 1.6716,0.62685 -0.94027,2.9253 -0.52238,0.31342 -1.14922,-2.61187 -0.8358,-3.13425 -0.20895,-1.77607 0.94027,-3.02977 0,-6.16401 -1.98502,-2.40292 -0.8358,-1.98502 -3.34319,-0.8358 -1.2537,-0.4179 -1.04475,-1.6716 -2.19397,-1.04475 -0.73132,-2.19397 -1.77607,-0.62684 -1.56713,-2.40292 -2.71634,-0.94028 -1.88055,-0.94027 -1.67159,0 -2.61188,0.52238 -0.10447,1.25369 0.52238,0.62685 -0.31343,0.73133 -1.98502,-0.10448 -2.40292,2.29845 -2.29845,1.25369 -2.50739,0 -2.0895,0.8358 -0.20895,-1.77607 -1.04474,-1.2537 -1.88055,-0.73132 -1.04475,-0.94028 -5.22374,-2.50739 -4.91031,-1.14922 -2.82082,0.4179 -3.86557,0.31342 -3.86557,1.35817 -2.2485,0.39614 -0.15376,-5.20224 -1.67159,-1.2537 -1.14923,-1.14922 0.20895,-1.98503 6.58192,-0.8358 16.50705,-1.88054 4.38794,-0.4179 3.51308,0.18113 1.6716,2.5074 0.94027,0.94027 5.23352,0.33296 6.99238,-0.41789 13.90261,-0.83581 3.51935,-0.43581 3.30083,0.13216 0.27585,1.88055 1.4431,0.52237 0.15183,-2.99219 -0.98763,-2.69681 0.84557,-0.9305 3.58974,0.29388 3.34319,0.20895 z m 8.10761,85.5682 1.56713,-0.4179 0.83579,-0.15671 0.94029,-1.5149 1.51488,-1.04475 0.83581,0.31343 1.09699,0.20895 0.26118,0.67909 -2.24621,0.78356 -2.71636,0.94028 -1.51489,0.78356 -0.57461,-0.57461 z m 8.72368,-3.23873 0.78356,0.67909 1.77608,-1.35818 3.44768,-2.71635 2.40293,-2.50741 1.61936,-4.28348 0.62686,-1.09699 0.10447,-2.19398 -0.47014,0.31343 -0.62685,1.82831 -0.94028,2.97754 -2.0895,3.39545 -2.82083,2.71635 -2.19398,1.2537 -1.61936,0.99252 z"
       inkscape:connector-curvature="0" />
    <g
       transform="matrix(0.80828177,0,0,0.5167169,0.64626068,-4.6768423)"
       clip-path="url(#clipPath4030)"
       style="font-size:74.28102875px;font-style:normal;font-weight:normal;line-height:100%;letter-spacing:0px;word-spacing:0px;fill:#000000;fill-opacity:1;stroke:none;font-family:Sans"
       id="text3129-9-2">
      <path
         d="m 587.04261,601.67515 6.85503,-0.58032 c 0.50777,3.33686 1.68655,5.84553 3.53633,7.52603 1.84976,1.68052 4.08036,2.52077 6.69182,2.52077 3.14338,0 5.80318,-1.18482 7.97941,-3.55446 2.17617,-2.36963 3.26427,-5.51303 3.2643,-9.43021 -3e-5,-3.7237 -1.04581,-6.66157 -3.13735,-8.81362 -2.0916,-2.15199 -4.82999,-3.228 -8.21517,-3.22803 -2.10368,3e-5 -4.00181,0.47758 -5.69439,1.43266 -1.69262,0.95514 -3.02252,2.19437 -3.9897,3.71768 l -6.12964,-0.79794 5.15034,-27.31133 26.44086,0 0,6.23844 -21.21797,0 -2.86533,14.29039 c 3.19174,-2.22452 6.54067,-3.3368 10.0468,-3.33684 4.64253,4e-5 8.55969,1.60801 11.75149,4.82392 3.19172,3.21597 4.7876,7.35075 4.78764,12.40435 -4e-5,4.81184 -1.40248,8.97079 -4.20732,12.47689 -3.40942,4.30404 -8.06407,6.45606 -13.96397,6.45607 -4.83602,-10e-6 -8.7834,-1.35409 -11.84216,-4.06225 -3.05878,-2.70816 -4.80578,-6.29889 -5.24102,-10.7722 z"
         style=""
         id="path3095" />
    </g>
  </g>
  <path
     d="m 569.87203,87.366678 0.5616,-0.6957 0.70456,-2.12685 -1.64349,-0.59034 -0.31343,-1.98503 -2.50739,-0.73132 -0.20895,-1.77608 -4.70139,-15.14888 -2.97372,-9.39856 -0.57974,-0.003 -0.4179,1.04475 -0.4179,-0.31343 -0.62685,-0.62684 -0.94027,1.25369 -0.0313,3.25202 0.20141,3.6625 1.25369,1.77608 0,2.61188 -2.40292,3.27187 -1.6716,0.73134 0,0.73132 0.73133,1.14922 0,5.53718 -0.52238,5.95508 -0.10448,3.13424 0.62686,0.83581 -0.10448,2.9253 -0.31343,1.14923 0.62611,0.45834 10.84921,-2.85941 1.40553,-0.38934 1.19143,-1.7923 2.32992,-1.04249 z"
     id="NH"
     class="state"
     inkscape:connector-curvature="0"
     style="fill:#d3d3d3;stroke:#ffffff;stroke-width:0.48469549;stroke-opacity:1" />
  <path
     d="m 137.00726,313.92967 v 35.54434 l 23.26539,29.08173 M 0.64626068,269.98395 H 93.707797 l 43.299463,43.94572 h 55.57842 l 34.25182,34.89808 v 29.72799"
     id="path57"
     style="fill:none;stroke:#a9a9a9;stroke-width:1.29252136"
     inkscape:connector-curvature="0" />
  <g
     id="MI"
     class="state"
     transform="matrix(0.64626067,0,0,0.64626067,0.64626068,-4.6768423)"
     style="fill:#d3d3d3;stroke:#ffffff;stroke-width:0.75;stroke-opacity:1">
    <path
       d="m 697.86007,177.23689 -3.23321,-8.24469 -2.26325,-9.05298 -2.4249,-3.23321 -2.58657,-1.77827 -1.6166,1.13163 -3.87986,1.77826 -1.93992,5.01148 -2.74823,3.71819 -1.13162,0.64664 -1.45495,-0.64664 c 0,0 -2.58656,-1.45495 -2.4249,-2.10159 0.16166,-0.64664 0.48498,-5.01147 0.48498,-5.01147 l 3.39487,-1.29329 0.8083,-3.39487 0.64664,-2.58656 2.42491,-1.61661 -0.32332,-10.02295 -1.61661,-2.26324 -1.29328,-0.80831 -0.8083,-2.10158 0.8083,-0.8083 1.6166,0.32332 0.16166,-1.61661 -2.4249,-2.26325 -1.29329,-2.58656 -2.58656,0 -4.5265,-1.45495 -5.49645,-3.39487 -2.74823,0 -0.64664,0.64665 -0.96997,-0.48499 -3.07154,-2.26324 -2.90989,1.77826 -2.90989,2.26325 0.32332,3.55653 0.96996,0.32332 2.10159,0.48498 0.48498,0.8083 -2.58657,0.80831 -2.58656,0.32332 -1.45495,1.77826 -0.32332,2.10159 0.32332,1.6166 0.32332,5.49646 -3.55653,2.10159 -0.64664,-0.16167 0,-4.20317 1.29328,-2.4249 0.64665,-2.42491 -0.80831,-0.8083 -1.93992,0.8083 -0.96997,4.20317 -2.74822,1.13162 -1.77827,1.93993 -0.16166,0.96996 0.64664,0.8083 -0.64664,2.58657 -2.26325,0.48498 0,1.13163 0.80831,2.4249 -1.13163,6.1431 -1.6166,4.04151 0.64664,4.68816 0.48498,1.13162 -0.8083,2.42491 -0.32332,0.8083 -0.32332,2.74823 3.55653,5.98143 2.90989,6.46642 1.45494,4.84982 -0.8083,4.68815 -0.96996,5.98144 -2.42491,5.17313 -0.32332,2.74823 -3.25887,3.08515 4.40861,-0.16205 21.41849,-2.26325 7.27784,-0.98706 0.0964,1.66635 6.85194,-1.21246 10.29808,-1.50313 3.8542,-0.46091 0.13805,-0.58755 0.16166,-1.45494 2.10158,-3.71819 2.00056,-1.73785 -0.22229,-5.05189 1.59699,-1.59699 1.09062,-0.34294 0.22228,-3.55653 1.53577,-3.03112 1.05079,0.60622 0.16166,0.64664 0.80831,0.16166 1.93992,-0.96996 -0.32332,-9.53797 z"
       id="MI-"
       style="stroke:#ffffff;stroke-width:0.75"
       inkscape:connector-curvature="0" />
    <path
       d="m 581.61931,82.059006 1.82899,-2.057604 2.17192,-0.800181 5.37264,-3.886597 2.28622,-0.571559 0.45726,0.457254 -5.14402,5.14402 -3.31504,1.943289 -2.05761,0.914496 -1.60036,-1.143118 z m 86.17438,32.128184 0.64664,2.50574 3.23322,0.16166 1.29329,-1.21246 c 0,0 -0.0808,-1.45494 -0.40415,-1.61661 -0.32333,-0.16166 -1.61661,-1.8591 -1.61661,-1.8591 l -2.18242,0.24249 -1.61662,0.16166 -0.32332,1.13163 0.96997,0.48499 z m -100.3016,-2.97401 0.71628,-0.5804 2.74823,-0.80831 3.55653,-2.26324 0,-0.96997 0.64665,-0.64664 5.98143,-0.96996 2.42491,-1.93993 4.36483,-2.10158 0.16166,-1.293286 1.93993,-2.909889 1.77826,-0.808302 1.29329,-1.778265 2.26324,-2.263247 4.36484,-2.424907 4.68815,-0.484981 1.13162,1.131623 -0.32332,0.969963 -3.71819,0.969963 -1.45494,3.071549 -2.26325,0.808302 -0.48498,2.424907 -2.42491,3.23321 -0.32332,2.58657 0.8083,0.48498 0.96997,-1.13162 3.55653,-2.90989 1.29328,1.29328 2.26325,0 3.23321,0.96996 1.45494,1.13163 1.45494,3.07155 2.74823,2.74822 3.87985,-0.16166 1.45495,-0.96996 1.6166,1.29328 1.61661,0.48499 1.29328,-0.80831 1.13162,0 1.61661,-0.96996 4.04151,-3.55653 3.39487,-1.13162 6.62808,-0.32332 4.52649,-1.93993 2.58657,-1.29328 1.45495,0.16166 0,5.65811 0.48498,0.32332 2.90988,0.80831 1.93993,-0.48499 6.1431,-1.6166 1.13162,-1.13162 1.45495,0.48498 0,6.9514 3.23321,3.07155 1.29328,0.64664 1.29328,0.96996 -1.29328,0.32332 -0.8083,-0.32332 -3.71819,-0.48498 -2.10159,0.64664 -2.26325,-0.16166 -3.23321,1.45495 -1.77826,0 -5.81978,-1.29329 -5.17313,0.16166 -1.93993,2.58657 -6.9514,0.64664 -2.42491,0.8083 -1.13162,3.07155 -1.29328,1.13163 -0.48498,-0.16166 -1.45495,-1.61661 -4.52649,2.42491 -0.64664,0 -1.13163,-1.61661 -0.8083,0.16166 -1.93992,4.36484 -0.96997,4.04151 -3.18112,7.0008 -1.17676,-1.03427 -1.37174,-1.03132 -1.94078,-10.28802 -3.54448,-1.37005 -2.05258,-2.28623 -12.12036,-2.74348 -2.85527,-1.02964 -8.23042,-2.17274 -7.88999,-1.14312 -3.7193,-5.14569 z"
       id="SP-"
       style="stroke:#ffffff;stroke-width:0.75"
       inkscape:connector-curvature="0" />
  </g>
  <g
     id="ny"
     inkscape:label="#g3062">
    <path
       inkscape:connector-curvature="0"
       style="fill:#bacee0;fill-opacity:0.99470901;stroke:#ffffff;stroke-width:0.48469549000000001;stroke-opacity:1"
       class="state"
       id="NY"
       d="m 537.28783,117.30202 -0.73132,-0.62685 -1.67161,-0.10447 -1.46264,-1.2537 -1.0538,-3.96101 -2.23507,0.0585 -1.57927,-1.75021 -12.52797,2.83188 -27.79036,5.64165 -4.86612,0.7936 -0.47704,-4.18023 0.92292,-0.72729 0.8358,-0.73132 0.62685,-1.04475 1.14922,-0.73132 1.2537,-1.14923 0.31343,-1.04474 1.35817,-1.77608 0.73132,-0.62684 -0.10447,-0.62686 -0.8358,-1.98501 -1.14922,-0.10448 -1.2537,-3.97004 1.88054,-1.149232 2.82082,-0.94027 2.61188,-0.8358 2.08949,-0.31342 4.07452,-0.10448 1.2537,0.8358 1.04474,0.10448 1.35818,-0.8358 1.67159,-0.73132 3.3432,-0.31343 1.35817,-1.14922 1.14922,-2.0895 1.04475,-1.25369 1.35817,0 1.2537,-0.73133 0.10447,-1.46265 -0.94027,-1.35817 -0.20895,-0.94027 0.73133,-1.35818 0,-0.94027 -1.14923,0 -1.14922,-0.52237 -0.52237,-0.73133 -0.10448,-1.6716 3.76109,-3.55213 0.4179,-0.52238 0.94028,-1.88054 1.88054,-2.9253 1.77608,-2.40292 1.35817,-1.56712 1.56078,-1.17982 1.99136,-0.8052 3.55214,-0.83581 2.0895,0.10448 2.9253,-0.94027 4.88908,-1.33852 0.33592,3.21817 1.56713,4.179 0.52237,3.34321 -0.62684,2.5074 1.6716,2.9253 0.52237,1.35817 -0.52237,1.88056 1.88055,0.83579 0.4179,0.20895 1.98503,7.10431 -0.34659,3.26986 -0.31342,6.999822 0.52237,3.55216 0.52237,2.29845 0.94028,4.70138 0,5.22375 -0.73133,1.46265 1.18869,1.28786 0.51478,1.0847 -1.25369,1.14922 0.20894,0.8358 0.8358,-0.20895 0.94028,-0.8358 1.46264,-1.6716 0.73133,-0.41789 1.04474,0.41789 1.46265,0.10448 5.11927,-2.5074 1.88054,-1.77607 0.8358,-0.94027 2.71634,1.04475 -2.19397,2.29844 -2.50739,1.88055 -4.59689,3.44766 -1.6716,0.62686 -3.76109,1.25369 -2.61187,0.73133 -0.75919,-0.34441 -0.1577,-2.38375 0.31343,-1.77608 -0.10448,-1.35817 -1.81826,-1.098 -2.9253,-0.62685 -2.5074,-0.73132 -2.40293,-1.14924 z" />
    <g
       transform="scale(1.2507055,0.79954873)"
       style="font-size:48.0049057px;font-style:normal;font-weight:normal;line-height:100%;letter-spacing:0px;word-spacing:0px;fill:#000000;fill-opacity:1;stroke:none;font-family:Sans"
       id="text3129-4">
      <path
         d="m 429.92828,130.71555 0,-8.22741 -14.90777,0 0,-3.86758 15.68129,-22.267901 3.44566,0 0,22.267901 4.6411,0 0,3.86758 -4.6411,0 0,8.22741 z m 0,-12.09499 0,-15.49377 -10.75891,15.49377 z"
         style=""
         id="path3092" />
    </g>
  </g>
  <path
     d="m 546.40316,94.884728 0.20467,-3.45467 -1.86815,-6.96939 -0.4179,-0.20894 -1.88055,-0.83581 0.52237,-1.88054 -0.52237,-1.35818 -1.74494,-2.99864 0.62685,-2.5074 -0.52238,-3.3432 -1.56712,-4.17901 -0.52061,-3.18122 17.0738,-4.35051 0.1995,3.56879 1.2384,1.77219 0,2.61188 -2.39579,3.26878 -1.67159,0.73846 -0.007,0.72418 0.84658,0.98175 -0.20094,5.2334 -0.39385,5.98363 -0.14732,3.59124 0.62685,0.8358 -0.10448,2.95386 -0.31342,1.0921 0.65543,0.46994 -4.8066,0.97373 -2.9093,0.46778 z"
     id="VT"
     class="state"
     inkscape:connector-curvature="0"
     style="fill:#d3d3d3;stroke:#ffffff;stroke-width:0.48469549;stroke-opacity:1" />
  <path
     d="m 597.0413,46.268358 1.2537,1.35817 1.46265,2.40292 0,1.2537 -1.35817,3.02977 -1.2537,0.41789 -2.19397,1.98503 -3.13425,3.55214 c 0,0 -0.41789,0 -0.83579,0 -0.4179,0 -0.62686,-1.35817 -0.62686,-1.35817 l -1.14921,0.10447 -0.62685,0.94027 -1.56713,0.94028 -0.62684,0.94027 1.04474,0.94027 -0.31342,0.41791 -0.31342,1.77606 -1.2537,-0.10447 0,-1.04475 -0.20895,-0.8358 -0.94027,0.20896 -1.14923,-2.0895 -1.35817,0.8358 0.8358,0.94027 0.20895,0.73132 -0.52238,0.8358 0.20895,1.98502 0.10448,1.04475 -1.04475,1.6716 -1.88055,0.31342 -0.20894,1.88055 -3.44768,1.98502 -0.83579,0.31342 -1.04475,-0.94027 -1.98503,2.29845 0.62686,2.08949 -0.94028,0.8358 -0.10447,2.82082 -0.72593,4.04518 -1.59126,-0.74705 -0.31343,-1.98503 -2.50739,-0.73133 -0.20895,-1.77607 -4.70139,-15.14888 -3.03651,-9.46109 0.91804,-0.0764 0.97831,0.2649 0,-1.6716 0.8455,-2.90588 1.6716,-3.02977 0.94027,-2.61187 -1.2537,-1.56712 0,-3.86557 0.52238,-0.62685 0.52238,-1.77607 -0.10448,-0.94027 -0.10448,-3.13424 1.14923,-3.13425 1.88054,-5.74611 1.35817,-2.71635 0.8358,0 0.8358,0.10448 0,0.73132 0.8358,1.46265 1.77607,0.4179 0.52238,-0.52238 0,-0.62685 2.61187,-1.88054 1.14922,-1.14922 0.94027,0.10447 3.86557,1.56712 1.2537,0.62685 5.85059,19.32784 3.86556,0 0.52238,1.2537 0.10447,3.13424 1.88055,1.46265 0.52237,0 0.10448,-0.31343 -0.31342,-0.73132 1.77606,-0.10447 z m -13.52736,19.48316 0.99251,-0.99252 0.88804,0.6791 0.36566,1.56713 -1.09699,0.57461 -1.14922,-1.82832 z m 4.33571,-3.81334 1.14923,1.20146 c 0,0 0.8358,0.0522 0.8358,-0.15671 0,-0.20895 0.15671,-1.30594 0.15671,-1.30594 l 0.57462,-0.52237 -0.52238,-1.14924 -1.30594,0.47014 -0.88804,1.46266 z"
     id="ME"
     class="state"
     inkscape:connector-curvature="0"
     style="fill:#d3d3d3;stroke:#ffffff;stroke-width:0.48469549;stroke-opacity:1" />
  <path
     d="m 565.52333,110.9362 -2.38844,-9.66547 4.05159,-1.19244 1.41604,1.24542 2.13685,2.79227 1.73709,2.84489 -1.93836,1.05004 -0.8358,-0.10447 -0.73132,1.14922 -1.56712,1.2537 -1.88053,0.62684 z"
     id="RI"
     class="state"
     inkscape:connector-curvature="0"
     style="fill:#d3d3d3;stroke:#ffffff;stroke-width:0.48469549;stroke-opacity:1" />
  <path
     d="m 533.89126,140.5328 0.84558,-0.17514 1.50548,-0.80993 0.78319,-1.60471 1.04475,-1.46265 2.0895,-1.98502 0,-0.52238 -1.56713,-1.04474 -2.29845,-1.56713 -0.62684,-1.6716 -1.77608,-0.20895 -0.10448,-0.73133 -0.52237,-1.77607 1.46265,-0.73132 0.10448,-1.56713 -0.83581,-0.83581 0.10447,-1.04475 1.25371,-1.98502 0,-1.98503 1.74337,-1.70993 -0.59474,-0.43621 -1.63121,-0.12467 -1.48284,-1.25369 -1.00165,-3.95257 -2.26487,0.065 -1.58672,-1.74706 -11.6915,2.71286 -27.79036,5.64165 -5.74613,0.94027 -0.40111,-4.21451 -3.46559,3.27502 -0.83581,0.31342 -2.71577,1.94453 1.88111,12.36778 1.6038,6.2877 2.30831,12.44795 2.11283,-0.41211 7.71866,-0.97099 24.51049,-4.95371 9.61391,-1.82461 5.36419,-1.04846 0.17263,-0.15416 1.35818,-1.04475 1.35817,-0.44 z"
     id="PA"
     class="state"
     inkscape:connector-curvature="0"
     style="fill:#d3d3d3;stroke:#ffffff;stroke-width:0.48469549;stroke-opacity:1" />
  <path
     d="m 536.83544,117.11755 -1.50097,1.76705 0,1.98503 -1.25371,1.98502 -0.10448,1.04476 0.83581,0.8358 -0.10447,1.56713 -1.46266,0.73132 0.52238,1.77607 0.10447,0.73133 1.77608,0.20895 0.62685,1.6716 2.29845,1.56713 1.56712,1.04474 0,0.52238 -1.92793,1.74268 -1.04475,1.46265 -0.94028,1.77607 -1.46265,0.8358 -0.29886,1.03562 -0.15672,0.78357 -0.39372,1.68463 0.70589,1.45033 2.0895,1.88055 3.13424,1.46265 2.61187,0.4179 0.10447,0.94027 -0.52237,0.62684 0.20895,1.77608 0.52237,0 1.35818,-1.56712 0.52237,-3.13425 1.77607,-2.61187 1.98502,-4.17899 0.73133,-3.55214 -0.4179,-0.73133 -0.10448,-6.05954 -1.04475,-2.19396 -0.73132,0.52237 -1.77607,0.20895 -0.31343,-0.31343 0.73133,-0.62685 1.35817,-1.25369 0.0408,-0.7069 -0.24842,-2.21916 0.37055,-1.77608 -0.0759,-1.27249 -1.8144,-1.13118 -3.29085,-0.75985 -2.67386,-0.89289 -2.31726,-1.06355 z"
     id="NJ"
     class="state"
     inkscape:connector-curvature="0"
     style="fill:#d3d3d3;stroke:#ffffff;stroke-width:0.48469549;stroke-opacity:1" />
  <path
     d="m 534.21594,142.85097 0.23802,-1.38745 0.24239,-1.09286 -1.04888,0.25705 -1.044,0.30217 -1.42582,1.1402 1.11164,3.25901 1.46266,3.65662 1.35817,6.2685 1.04475,4.07454 3.23873,-0.10448 3.96941,-0.76303 -1.46329,-4.77345 -0.62685,0.31342 -2.29844,-1.56712 -1.14922,-3.02977 -1.2537,-2.29844 -2.03386,-1.85497 -0.55848,-1.35594 0.23677,-1.044 z"
     id="DE"
     class="state"
     inkscape:connector-curvature="0"
     style="fill:#d3d3d3;stroke:#ffffff;stroke-width:0.48469549;stroke-opacity:1" />
  <path
     d="m 543.37064,158.44889 -3.88309,0.778 -3.32365,0.0759 -1.19142,-4.47363 -1.24393,-5.92577 -1.66259,-3.99935 -0.83263,-2.84247 -4.85084,1.04847 -9.61391,1.8246 -24.20339,4.87985 0.73112,3.23883 0.62684,3.65662 0.20895,-0.20895 1.35819,-1.56712 1.46264,-1.69169 1.56712,-0.39781 0.94029,-0.94028 1.14922,-1.6716 0.83579,0.41791 1.88055,-0.20896 1.6716,-1.35817 1.29698,-0.93919 1.1925,-0.31342 1.06268,0.73024 1.88054,0.94027 1.2537,1.14923 0.78356,0.99251 2.66412,1.09698 0,1.88055 3.55214,0.8358 0.73961,0.35026 0.91245,-1.31082 1.86251,1.27324 -0.82603,1.60397 -0.49457,2.57578 -1.14922,1.6716 0,1.35817 0.4179,1.14923 3.27263,0.87613 2.7861,-0.0399 1.98501,0.62686 1.35818,0.20894 0.62684,-1.35817 -0.94027,-1.35817 0,-1.14923 -1.56712,-1.35817 -1.35817,-3.55214 0.8358,-3.44767 -0.10448,-1.35817 -0.83579,-0.8358 c 0,0 0.94027,-1.04475 0.94027,-1.46265 0,-0.4179 0.31342,-1.35817 0.31342,-1.35817 l 1.2537,-0.8358 1.2537,-1.04475 0.31342,0.62686 -0.94027,1.04474 -0.8358,2.40292 0.20895,0.73132 1.14922,0.20895 0.31342,3.55215 -1.35816,0.62684 0.20894,2.29845 0.31343,-0.10447 0.73132,-1.2537 1.04475,1.14922 -1.04475,0.8358 -0.20895,2.19397 1.6716,2.19398 2.50739,0.31342 1.04476,-0.52237 2.09165,2.70326 0.87785,0.34659 4.3,-1.80756 1.29742,-2.60047 -0.28174,-3.17183 z m -10.32051,5.83491 0.73132,1.61937 0.10447,1.14922 0.73133,1.20147 c 0,0 0.57462,-0.57462 0.57462,-0.78357 0,-0.20895 -0.47014,-1.98503 -0.47014,-1.98503 l -0.47014,-1.51489 -1.20146,0.31343 z"
     id="MD"
     class="state"
     inkscape:connector-curvature="0"
     style="fill:#d3d3d3;stroke:#ffffff;stroke-width:0.48469549;stroke-opacity:1" />
  <path
     d="m 538.10174,167.27304 -0.093,-1.25829 4.1706,-1.64789 -0.49789,2.07957 -1.88705,2.44229 -0.27019,2.96363 0.29841,2.19111 -1.18135,3.21719 -1.39868,1.23833 -0.95022,-2.99918 0.28816,-3.52154 1.02561,-2.70336 0.4956,-2.00186 z m 2.15863,18.29006 -37.59568,8.127 -24.18758,3.41166 -4.31594,-0.24247 -1.67075,1.24495 -4.74299,0.14262 -5.41703,0.63183 -7.0539,1.04347 6.76598,-3.6263 -0.008,-1.34095 0.98235,-1.38696 6.82049,-7.43292 2.55061,2.89361 2.44481,0.62298 1.64374,-0.73694 1.44583,-0.84736 1.63931,0.86827 2.52957,-0.92271 1.21286,-2.94458 1.68087,0.34899 1.84523,-1.37734 1.1628,0.31899 1.82711,-2.37602 0.22506,-1.34623 -0.62277,-0.82435 0.64805,-1.20633 3.40855,-7.93424 0.3986,-3.70636 0.79418,-0.33834 1.4079,1.57873 2.54359,-0.19463 1.24677,-4.89454 1.80565,-0.36246 0.67841,-1.77145 1.66724,-1.5167 1.79132,-3.68057 0.0549,-3.27496 6.34725,2.47054 c 0.44001,0.22 0.53826,-3.26307 0.53826,-3.26307 l 2.36051,1.03294 0.0441,1.89881 3.73813,0.83981 1.37844,0.76014 1.07274,1.32851 -0.42301,2.35799 -1.25855,1.67445 0.071,1.33069 0.38062,1.19747 3.21757,0.81973 2.87668,0.0258 1.98327,0.61953 1.25601,0.19989 0.46196,1.99595 2.06185,0.26014 0.561,0.77552 -0.28402,3.03102 0.88843,0.71253 -0.30953,1.24754 0.79452,0.5104 -0.14334,0.89481 -1.74102,-0.0613 0.0575,1.04404 1.47411,0.9971 0.0786,0.91246 1.14589,1.15382 0.31783,1.63124 -1.64993,0.89269 1.01606,0.96571 3.74897,-1.08949 2.33146,3.88528 z"
     id="VA"
     class="state"
     inkscape:connector-curvature="0"
     style="fill:#d3d3d3;stroke:#ffffff;stroke-width:0.48469549;stroke-opacity:1" />
  <path
     d="m 492.57052,149.75834 0.71865,3.19545 0.70018,3.89781 1.37672,-1.66757 1.46265,-1.98503 1.64045,-0.3978 0.94028,-0.94027 1.14923,-1.6716 0.93383,0.4179 1.88055,-0.20895 1.6716,-1.35818 1.29698,-0.93918 1.19249,-0.31343 0.84268,0.6569 2.35449,1.17725 1.2537,1.14922 0.88804,0.8358 -0.49227,3.58994 -3.77088,-1.64229 -2.74353,-1.04825 -0.0654,3.34662 -1.77569,3.57817 -1.63506,1.56825 -0.7704,1.77683 -1.70844,0.32319 -0.58024,2.32775 -0.6742,2.55252 -2.56451,0.22021 -1.50174,-1.57615 -0.69224,0.36152 -0.40888,3.53485 -0.87264,2.28421 -3.20442,7.07977 0.5795,0.75011 -0.13304,1.23342 -1.81515,2.51038 -1.16876,-0.35176 -1.91813,1.39576 -1.64304,-0.3698 -1.29203,2.94409 c 0,0 -2.10636,0.92429 -2.53522,0.8839 -0.10373,-0.01 -1.59568,-0.80724 -1.59568,-0.80724 l -1.51,0.89143 -1.55736,0.67495 -2.42005,-0.5746 -0.72471,-0.75501 -1.41675,-1.95388 -2.03093,-1.28485 -1.10612,-2.34155 -2.76915,-2.24136 -0.41791,-1.46265 -1.67159,-0.94027 -0.52238,-1.04475 -0.15672,-3.39544 1.41042,-0.0522 1.2537,-0.52237 0.10448,-1.77607 1.04474,-0.94028 0.10448,-3.23872 0.62685,-2.5074 0.8358,-0.4179 0.83579,0.73132 0.31343,1.14923 1.14923,-0.62686 0.31342,-1.04474 -0.73132,-1.14923 0,-1.56712 0.62685,-0.83581 1.46265,-2.19397 0.83579,-0.94027 1.35819,0.31343 1.46264,-1.04476 1.98502,-2.19397 1.46266,-2.5074 0.20895,-3.65662 0.31342,-3.23873 0,-3.02977 -0.73132,-1.98502 0.62684,-0.94028 0.82947,-0.8358 2.25625,12.81349 2.99284,-0.48544 8.03194,-1.16304 z"
     id="WV"
     class="state"
     inkscape:connector-curvature="0"
     style="fill:#d3d3d3;stroke:#ffffff;stroke-width:0.48469549;stroke-opacity:1" />
  <path
     d="m 401.04969,189.18283 0.0422,-1.84739 0.31343,-2.9253 1.46264,-1.88055 1.14923,-2.5074 1.67159,-2.71635 -0.31342,-3.7611 -1.14922,-1.77607 -0.20895,-2.0895 0.52238,-3.55215 -0.31343,-4.49242 -0.83581,-10.34302 -0.83579,-9.92512 -0.62718,-7.57419 1.98471,0.57486 0.94027,0.62684 0.73132,-0.20894 1.35818,-1.2537 1.82864,-1.045 3.29128,-0.10472 14.2086,-1.46265 3.60337,-0.34456 0.97142,10.31187 2.74748,23.80924 0.38677,3.72996 -0.24009,1.46265 0.79359,1.16028 0.0623,0.88702 -1.62941,1.0337 -2.28739,1.00255 -2.06941,0.35563 -0.38676,3.1453 -2.95645,2.14072 -1.80721,2.59179 0.20895,1.53599 -0.3757,0.99149 -2.14977,0 -1.02466,-1.04474 -1.61133,0.81571 -1.73389,0.97142 0.10448,1.97397 -0.7715,0.16675 -0.30237,-0.65798 -1.40037,-0.97142 -2.10056,0.86695 -1.00255,1.94282 -0.92922,-0.52238 -0.94027,-1.0337 -2.88513,0.31343 -3.61443,0.62685 -1.88054,1.00256 z"
     id="IN"
     class="state"
     inkscape:connector-curvature="0"
     style="fill:#d3d3d3;stroke:#ffffff;stroke-width:0.48469549;stroke-opacity:1" />
  <path
     d="m 401.03153,189.42267 0.0202,-2.08724 0.36668,-3.0025 1.50742,-1.8844 1.20634,-2.63401 1.44312,-2.58202 -0.24009,-3.39442 -1.29589,-2.28942 -0.0623,-2.16283 0.44904,-3.40548 -0.53343,-4.6391 -0.68913,-10.19634 -0.8358,-9.70512 -0.59603,-7.52196 -0.17611,-0.59545 -0.52237,-1.6716 -0.8358,-2.40292 -1.04475,-1.14923 -0.94027,-1.67159 -0.15095,-3.5473 -29.59643,1.67915 0.14775,1.5329 1.4775,0.44325 0.59099,0.73874 0.2955,1.182 2.51175,2.21625 0.44325,1.4775 -0.44325,2.21625 -1.182,2.36399 -0.44325,1.62524 -1.4775,1.18201 -1.18199,0.44325 -3.39825,0.88649 -0.44325,1.182 -0.44325,1.32976 0.44325,0.8865 1.182,1.03425 -0.14775,2.65949 -1.182,1.03425 -0.44325,1.03425 0,1.77299 -1.182,0.2955 -1.03425,0.73875 -0.14774,0.88651 0.14774,1.32974 -1.10812,0.84956 -0.66487,1.80994 0.29549,2.36399 1.4775,4.728 4.728,4.87574 3.54599,2.364 -0.14775,2.80725 0.59101,0.8865 4.13699,0.29549 1.773,0.8865 -0.44325,2.364 -1.4775,3.8415 -0.44325,2.0685 1.47749,2.51174 4.137,3.39825 2.955,0.44325 1.32974,3.25049 1.32976,2.0685 -0.591,1.92074 1.03425,2.6595 1.18199,1.32975 0.91384,-0.56915 0.58658,-1.34086 1.43023,-1.12914 1.37748,-0.39707 1.68192,0.76246 2.34398,0.88906 0.76837,-0.19273 0.12917,-1.45955 -0.83194,-1.55865 0.19661,-1.53598 1.18809,-0.8708 1.95334,-0.52366 0.81487,-0.29632 -0.3959,-0.89629 -0.51143,-1.52153 0.92583,-0.63396 0.74803,-2.0771 z"
     id="IL"
     class="state"
     inkscape:connector-curvature="0"
     style="fill:#d3d3d3;stroke:#ffffff;stroke-width:0.48469549;stroke-opacity:1" />
  <path
     d="m 565.52223,110.91521 -2.37658,-9.61559 -3.04958,0.59476 -13.71933,3.06527 0.64638,2.08462 0.94028,4.70138 0.11425,5.79497 -0.78845,1.40553 1.24133,1.2488 2.76052,-2.52406 2.29844,-2.0895 1.2537,-1.35818 0.52238,0.4179 1.77606,-0.94027 3.3432,-0.73132 5.0374,-2.05431 z"
     id="CT"
     class="state"
     inkscape:connector-curvature="0"
     style="fill:#d3d3d3;stroke:#ffffff;stroke-width:0.48469549;stroke-opacity:1" />
  <path
     d="m 398.13915,122.87476 -0.0431,-2.04051 -0.76201,-2.9253 -0.4179,-3.97004 -0.73132,-1.56712 0.62684,-1.98502 0.52238,-1.88055 0.94027,-1.67159 -0.4179,-2.19397 -0.4179,-2.29845 0.31342,-1.14923 1.25371,-1.567122 0.10447,-1.77607 -0.52237,-0.8358 0.4179,-1.6716 -0.29245,-2.69536 1.77607,-3.65662 1.88055,-4.38794 0.10447,-1.46265 -0.20894,-0.62685 -0.52238,0.31343 -2.71635,4.07452 -1.77607,2.61187 -1.25369,1.14922 -0.52238,1.46264 -1.2634,0.52238 -0.73133,1.2537 -0.94027,-0.20895 -0.10448,-1.14923 0.83581,-1.56712 1.35816,-3.02977 1.14923,-1.04474 0.64033,-1.52379 -1.65471,-1.22876 -1.27625,-6.69978 -2.29259,-0.86727 -1.25779,-1.49178 -7.83896,-1.75889 -1.85857,-0.65405 -5.30782,-1.40063 -5.11704,-0.74886 -2.43327,-3.31575 -0.48496,0.35804 -0.77416,-0.10448 -0.4179,-0.73132 -0.86212,0.19165 -0.73133,0.10448 -1.14922,0.62684 -0.62685,-0.4179 0.4179,-1.2537 1.25369,-1.98502 0.73133,-0.73132 -1.2537,-0.94027 -1.35817,0.52237 -1.88055,1.2537 -4.80584,2.08949 -1.88055,0.4179 -1.88054,-0.31342 -0.63445,-0.56758 -1.36794,1.83226 -0.14775,1.773 0,5.46674 -0.73875,1.03426 -3.39825,2.51173 -1.47749,3.8415 0.29549,0.14775 1.62525,1.32975 0.44325,2.0685 -1.182,2.06849 0,2.51175 0.2955,4.28474 1.92075,1.92075 2.21625,0 1.182,2.0685 2.21624,0.2955 2.51175,3.693752 4.58024,2.6595 1.32975,1.77299 0.591,4.80188 0.44325,2.14236 1.4775,1.03425 0.14775,0.8865 -1.32975,2.21624 0.14775,2.06851 1.62525,2.51174 1.62525,0.73875 1.92074,0.2955 0.8675,0.89191 29.27455,-1.72516 z"
     id="WI"
     class="state"
     inkscape:connector-curvature="0"
     style="fill:#d3d3d3;stroke:#ffffff;stroke-width:0.48469549;stroke-opacity:1" />
  <path
     d="m 540.26198,185.52772 1.34746,3.17789 2.29844,4.17899 1.56712,1.56713 0.4179,1.46265 -1.56712,0.10447 0.52237,0.4179 -0.20895,2.71634 -1.67159,0.8358 -0.4179,1.35817 -0.8358,1.88055 -2.40292,1.04475 -1.56712,-0.20895 -0.94028,-0.10448 -1.04474,-0.83579 0.20894,0.83579 0,0.62686 1.25371,0 0.52237,0.83579 -1.2537,4.07452 2.71634,0 0.41791,1.04475 1.46264,-1.46265 0.8358,-0.31343 -1.2537,2.29845 -1.98502,3.13425 -0.8358,0 -0.73133,-0.31343 -1.77606,0.4179 -3.3432,1.56712 -4.17899,3.44767 -2.19397,3.02977 -1.2537,4.17899 -0.31342,1.56712 -3.02977,0.31343 -3.52415,0.86383 -6.42797,-5.30098 -8.14905,-4.91032 -1.88055,-0.52238 -8.14904,0.94028 -2.76371,0.48479 -1.04474,-2.0895 -1.91963,-1.36794 -10.65645,0.31342 -4.70137,0.52238 -5.8506,2.9253 -3.97005,1.67159 -13.68621,1.67161 0.32319,-2.62015 1.14922,-0.94028 1.77608,-0.4179 0.4179,-2.40293 2.71635,-1.77606 2.50739,-0.94029 2.71636,-2.29844 2.82082,-1.35818 0.4179,-1.98502 2.5074,-2.5074 0.41789,-0.10447 c 0,0 0,0.73132 0.52238,0.73132 0.52238,0 1.2537,0.20895 1.2537,0.20895 l 1.46265,-2.29845 1.35818,-0.4179 1.46264,0.20895 1.04476,-2.29844 1.88055,-1.67161 0.31342,-1.35817 0.12117,-2.35768 2.76374,-0.0145 4.65216,-0.55306 10.18328,-1.45566 9.78183,-1.34846 13.98539,-3.04993 12.91443,-2.75215 7.22322,-1.55478 3.2636,-0.74765 z m 2.75983,21.4601 1.67161,-1.61937 2.03726,-1.6716 0.99251,-0.4179 0.10448,-1.30594 -0.4179,-3.97005 -0.94028,-1.51489 -0.4179,-1.20146 0.47014,-0.15672 1.77608,3.55216 0.26118,2.87306 -0.10447,2.19398 -2.19398,0.99251 -1.82831,1.56713 -0.73133,0.78356 -0.67909,-0.10447 z"
     id="NC"
     class="state"
     inkscape:connector-curvature="0"
     style="fill:#d3d3d3;stroke:#ffffff;stroke-width:0.48469549;stroke-opacity:1" />
  <path
     d="m 521.41568,157.43367 -1.20093,-1.17889 -0.79661,-0.44352 0.93257,-1.30704 1.8671,1.25923 -0.80213,1.67022 z"
     id="DC"
     class="state"
     inkscape:connector-curvature="0"
     style="fill:#d3d3d3;stroke:#ffffff;stroke-width:0.48469549;stroke-opacity:1" />
  <path
     d="m 582.03754,107.29037 1.40363,-0.44326 0.29551,-1.10812 0.66487,0.0739 0.66487,1.47751 -0.81262,0.2955 -2.51176,0.0739 0.2955,-0.36938 z m -6.05775,0.51712 1.47749,-1.69912 1.03426,0 1.182,0.96037 -1.55137,0.66487 -1.40363,0.66488 -0.73875,-0.591 z m -22.48931,-14.210102 11.40448,-2.99909 1.46265,-0.4179 1.237,-1.80675 2.41493,-1.07493 1.8672,2.85184 -1.56712,3.3432 -0.20895,0.94027 1.2537,1.6716 0.73132,-0.52238 1.14922,0 1.46265,1.6716 2.5074,3.865572 2.29844,0.31342 1.46265,-0.62685 1.14922,-1.149222 -0.52238,-1.77607 -1.35817,-1.04475 -0.94027,0.52237 -0.62685,-0.8358 0.31342,-0.31342 1.35818,-0.10447 1.14922,0.52237 1.2537,1.56712 0.62685,1.880552 0.20895,1.56712 -2.71635,0.94027 -2.50739,1.2537 -2.5074,2.9253 -1.2537,0.94027 0,-0.62685 1.56713,-0.94028 0.31342,-1.14922 -0.52237,-1.98502 -1.88055,0.94027 -0.52237,0.94028 0.31342,1.46264 -1.33539,0.64654 -1.7754,-2.9257 -2.19398,-2.82083 -1.33808,-1.17133 -4.2222,1.21252 -3.29097,0.67908 -13.36155,2.96777 -0.43154,-3.08128 0.4179,-6.843102 2.77198,-0.57462 4.38795,-0.83581 z"
     id="MA"
     class="state"
     inkscape:connector-curvature="0"
     style="fill:#d3d3d3;stroke:#ffffff;stroke-width:0.48469549;stroke-opacity:1" />
  <path
     d="m 450.88177,200.99828 -33.53646,3.23873 -10.18478,1.14921 -2.9865,0.33135 -2.49996,-0.0179 -0.14281,2.6502 -5.28989,0.17062 -4.49242,0.4179 -5.22879,-0.08 -0.91367,4.57092 -1.0962,3.54154 -2.12825,1.77776 -0.87164,2.8313 -0.20895,1.6716 -2.61187,1.46264 0.94027,2.29846 -0.62685,2.82082 -0.62582,0.51032 69.89861,-6.72599 0.26062,-2.55592 1.1702,-0.96318 1.8316,-0.48434 0.43425,-2.40214 2.64876,-1.74811 2.61537,-0.96553 2.63906,-2.30737 2.86687,-1.30897 0.33687,-1.98231 2.62679,-2.57534 0.35596,-0.0738 c 0,0 0.0202,0.73133 0.54257,0.73133 0.52237,0 1.2537,0.22914 1.2537,0.22914 l 1.46265,-2.31865 1.33798,-0.41789 1.47031,0.19078 1.03293,-2.28315 1.90986,-1.70866 0.27251,-1.25317 0.19967,-2.39837 -1.38723,-0.1291 -1.68136,1.31083 -4.5195,0.0188 -11.86489,1.5425 -5.20957,1.2332 z"
     id="TN"
     class="state"
     inkscape:connector-curvature="0"
     style="fill:#d3d3d3;stroke:#ffffff;stroke-width:0.48469549;stroke-opacity:1" />
  <path
     d="m 384.41185,217.0248 -2.57204,0.46317 -3.30378,-0.40975 0.27188,-1.03535 1.9257,-1.65875 0.60967,-2.36289 -1.182,-1.92075 -50.67819,1.62525 1.03425,4.4325 -10e-6,5.31899 0.88651,7.09206 0.14775,24.45252 1.4775,1.25587 1.92075,-0.88649 1.773,0.73875 0.43968,4.24806 35.94583,-0.73712 0.74037,-1.35093 -0.18523,-2.29391 -1.17983,-1.92075 1.03317,-0.95983 -1.03317,-1.62308 0.44217,-1.62201 0.88434,-3.62257 1.62741,-1.33299 -0.44326,-1.47643 2.36401,-3.47157 1.77299,-0.88434 -0.0733,-0.96524 -0.22325,-1.17984 1.84634,-3.61824 1.55299,-0.81208 0.24824,-2.21515 1.14432,-0.80246 -2.03154,-0.31296 -0.86693,-2.59179 1.81217,-1.53598 0.35561,-1.30493 0.82688,-2.61516 0.68903,-2.10383 z"
     id="AR"
     class="state"
     inkscape:connector-curvature="0"
     style="fill:#d3d3d3;stroke:#ffffff;stroke-width:0.48469549;stroke-opacity:1" />
  <path
     d="m 361.54421,155.66894 -1.62849,-1.99517 -0.73875,-1.4775 -41.59155,1.55137 -1.47752,0.0739 0.81263,1.62525 -0.14775,1.47749 1.62524,2.51175 1.99462,2.6595 1.99462,1.773 1.39672,0.14775 0.96728,0.591 0,1.92075 -1.18199,1.03425 -0.29551,1.47749 1.32975,2.21625 1.62526,1.92075 1.62524,1.182 0.88649,7.53523 0.20302,23.31205 0.14775,3.02887 0.2955,3.47915 14.49755,-0.56019 14.99715,-0.44326 13.44523,-0.51766 7.532,-0.14883 1.402,2.21409 -0.44216,2.13751 -1.99517,1.55299 -0.36992,1.1874 3.47591,0.29551 2.51716,-0.44326 1.10975,-3.55032 0.42098,-3.78501 1.35588,-1.6513 1.67771,-0.96092 0.0332,-1.97125 0.65661,-1.25147 -1.09491,-1.64394 -0.86013,0.63609 -1.28775,-1.43938 -0.83047,-3.07555 0.51766,-1.62742 -1.25641,-2.21516 -1.18307,-2.95716 -3.10167,-0.51658 -4.50366,-3.61825 -1.11083,-2.65841 0.51658,-2.0685 1.33083,-3.91484 0.29658,-1.85065 -1.25965,-0.66649 -4.43034,-0.51551 -0.66433,-1.1065 -0.0723,-2.73391 -3.54599,-2.21733 -4.508,-5.02242 -1.47749,-4.72799 -0.14883,-2.73066 0.51766,-1.47858 z"
     id="MO"
     class="state"
     inkscape:connector-curvature="0"
     style="fill:#d3d3d3;stroke:#ffffff;stroke-width:0.48469549;stroke-opacity:1" />
  <path
     d="m 435.12233,225.10231 0,1.41041 0.10447,1.35818 0.4179,2.19397 2.19398,5.11927 1.56712,6.37298 0.94027,3.97005 1.04475,3.13424 0.94028,4.49242 1.35817,4.07453 1.6716,2.19397 0.31343,2.19398 1.2537,0.52237 0.10447,1.35818 -1.14922,3.13424 -0.31343,2.0895 -0.10447,1.2537 1.04475,2.82083 0.20895,3.44767 -0.52238,1.56712 0.4179,0.52238 0.94028,0.52238 0.13229,2.07972 1.44311,2.16467 1.45437,1.39725 5.11927,0.10447 6.99238,-0.4179 13.90261,-0.83579 3.51936,-0.43582 2.9581,0.0179 0.10447,1.88055 1.6716,0.52237 0.20895,-2.82082 -1.04475,-2.9253 0.73132,-1.04475 3.7611,0.52238 3.2167,0.20536 -0.50112,-4.07066 1.46264,-6.47743 0.94028,-2.71635 -0.31343,-1.6716 2.1549,-4.03544 -0.32979,-0.87354 -1.23656,0.45534 -1.67159,-0.83581 -0.41791,-1.35817 -0.83579,-2.29845 -1.46266,-1.35817 -1.67159,-0.4179 -1.04475,-3.13425 -1.89032,-4.09406 -2.71635,-1.2537 -1.35818,-1.2537 -0.8358,-1.6716 -1.35817,-1.2537 -1.46265,-0.8358 -1.46265,-1.88055 -1.98502,-1.46264 -2.9253,-1.14923 -0.31343,-0.94027 -1.56712,-1.88055 -0.31342,-0.94028 -2.19398,-3.21222 -2.27476,0.0641 -2.42665,-1.52268 -0.91657,-0.83579 -0.20895,-1.14923 0.56276,-1.25369 1.43899,-0.71744 -0.40969,-1.35535 -27.05877,3.22415 z"
     id="GA"
     class="state"
     inkscape:connector-curvature="0"
     style="fill:#d3d3d3;stroke:#ffffff;stroke-width:0.48469549;stroke-opacity:1" />
  <path
     d="m 494.99902,259.10407 -1.14845,0.62655 -1.6716,-0.8358 -0.41789,-1.35818 -0.8358,-2.29844 -1.46266,-1.35818 -1.67159,-0.4179 -1.04475,-3.13424 -1.77608,-3.86558 -2.71634,-1.25371 -1.35818,-1.25369 -0.8358,-1.6716 -1.35817,-1.25371 -1.46265,-0.83579 -1.46265,-1.88055 -1.98502,-1.46264 -2.92531,-1.14923 -0.31342,-0.94027 -1.56712,-1.88055 -0.31343,-0.94029 -2.19398,-3.34319 -2.19397,0.10448 -2.61187,-1.56713 -0.8358,-0.8358 -0.20895,-1.14922 0.52237,-1.2537 1.46265,-0.62686 -0.33012,-1.47934 3.7277,-1.51003 5.89098,-2.96569 5.02451,-0.52238 10.4141,-0.27304 1.705,1.21331 1.08513,2.17029 2.78044,-0.39421 8.14905,-0.94028 1.88054,0.52238 8.14905,4.91033 6.53246,5.24872 -3.50349,3.52751 -1.6716,3.97004 -0.31342,4.07452 -1.04475,0.52237 -0.73133,1.77608 -1.56711,0.4179 -1.35818,2.29844 -1.77607,1.77607 -1.46264,2.19397 -1.04476,0.52238 -2.29844,2.19397 -1.88055,0.10447 0.62685,2.0895 -3.23872,3.55214 -1.35817,0.8358 z"
     id="SC"
     class="state"
     inkscape:connector-curvature="0"
     style="fill:#d3d3d3;stroke:#ffffff;stroke-width:0.48469549;stroke-opacity:1" />
  <path
     d="m 408.6348,292.87173 -0.96331,-9.25542 -1.77608,-12.11909 0.10447,-9.08933 0.52237,-20.05919 -0.10447,-10.76092 0.10669,-4.14839 28.74857,-2.33911 -0.0955,1.41042 0.10448,1.35818 0.4179,2.19397 2.19398,5.11927 1.56712,6.37297 0.94027,3.97006 1.04475,3.13424 0.94028,4.49243 1.35817,4.07451 1.6716,2.19399 0.31342,2.19396 1.25371,0.52238 0.10447,1.35818 -1.14923,3.13424 -0.31342,2.08951 -0.10448,1.25369 1.04476,2.82083 0.20895,3.44767 -0.52238,1.56713 0.41791,0.52237 0.94027,0.52237 0.21206,1.86693 -3.61755,-0.22848 -4.38794,0.4179 -16.50705,1.88054 -6.72858,0.90914 -0.14307,1.85955 1.14922,1.14923 1.6716,1.25369 0.37539,5.12837 -3.58162,1.66276 -1.77606,-0.20895 1.77606,-1.2537 0,-0.62685 -1.98501,-3.86556 -1.46265,-0.4179 -0.94028,2.82082 -0.8358,1.77607 -0.41789,-0.10448 -1.77608,0 z"
     id="AL"
     class="state"
     inkscape:connector-curvature="0"
     style="fill:#d3d3d3;stroke:#ffffff;stroke-width:0.48469549;stroke-opacity:1" />
  <path
     d="m 393.55146,292.06102 -2.12271,-2.04615 0.65266,-3.55459 -0.4274,-0.57716 -5.98546,0.6505 -16.17482,0.29658 -0.44216,-1.54758 0.58991,-5.46459 2.14293,-3.84257 3.25157,-5.61666 -0.371,-1.54975 0.81208,-0.44001 0.29659,-1.26181 -1.47751,-1.32867 -0.0722,-1.25533 -1.18309,-2.80833 -0.095,-4.09639 -35.85053,0.59713 0.0185,6.18702 0.44325,6.05774 0.44325,2.51175 1.62525,2.65949 0.59099,3.25051 2.80725,3.54599 0.14775,2.06849 0.44325,0.44326 -0.44325,5.46674 -1.92075,3.25049 1.03425,1.32975 -0.44325,1.62525 -0.44325,4.72799 -0.8865,2.0685 0.0791,2.33717 3.02869,-0.98242 7.82838,0.13379 6.68639,2.29844 4.17899,0.73133 2.40292,-0.94028 2.0895,0.73133 2.08949,0.62685 0.52238,-1.35818 -2.0895,-0.73132 -1.6716,0.31342 -1.77607,-1.04474 c 0,0 0.10448,-0.8358 0.52238,-0.94028 0.4179,-0.10447 1.98502,-0.62685 1.98502,-0.62685 l 1.14922,0.94028 1.14923,-0.62685 2.08949,0.4179 0.94027,1.56712 0.20895,1.46265 2.92529,0.20895 1.14923,1.14922 -0.52237,1.04475 -0.8358,0.52237 1.04475,1.04475 5.43268,2.29844 2.29845,-0.83579 0.62685,-1.56713 1.67159,-0.4179 1.14923,-0.94027 0.8358,0.62685 0.52237,1.88055 -1.46264,0.52237 0.41789,0.4179 2.19397,-0.8358 1.46265,-2.19397 0.52238,-0.31342 -1.35818,-0.20895 0.52237,-1.04475 -0.10447,-0.94027 1.35817,-0.31343 0.73133,-0.8358 0.41789,0.52237 c 0,0 -0.10447,1.98503 0.41791,1.98503 0.52237,0 2.71634,0.4179 2.71634,0.4179 l 2.61187,1.25369 0.62685,0.94028 1.88055,0 0.73132,0.62685 1.46265,-1.98502 0,-0.94028 -0.8358,0 -2.19397,-1.77607 -3.7611,-0.52238 -2.08949,-1.46264 0.73133,-1.77607 1.46264,0.20895 0.10447,-0.4179 -1.14922,-0.62685 0,-0.31343 2.0895,0 1.14922,-1.98501 -0.8358,-1.2537 -0.20894,-1.77608 -0.94028,0.10448 -1.2537,1.35817 -0.41789,1.6716 -1.98503,-0.4179 -0.62685,-1.14922 1.14923,-1.2537 1.23004,-2.22676 -0.68574,-1.55895 -0.75331,-2.57298 z"
     id="LA"
     class="state"
     inkscape:connector-curvature="0"
     style="fill:#d3d3d3;stroke:#ffffff;stroke-width:0.48469549;stroke-opacity:1" />
  <path
     d="m 408.79789,292.1795 -0.16432,0.8118 -3.3432,0 -0.94027,-0.52237 -1.35817,-0.20895 -4.38795,1.25369 -1.14922,-0.52237 -1.67159,2.71634 -0.71253,0.50281 -0.72629,-1.60789 -0.73875,-2.51175 -2.21624,-2.06849 0.73874,-3.58323 -0.44325,-0.59099 -1.182,0.14774 -5.11704,0.56443 -15.86343,0.24129 -0.49746,-1.43816 0.56443,-5.4136 2.01429,-3.66611 3.37805,-5.90999 -0.28806,-1.57209 0.79933,-0.42411 0.28169,-1.24048 -1.4977,-1.34356 -0.0744,-1.38396 -1.18635,-2.6633 -0.0704,-3.8535 0.85793,-1.60335 -0.14431,-2.20747 -1.14356,-1.99215 0.98647,-0.9579 -1.01502,-1.61535 0.2955,-1.06776 1.01941,-4.21774 1.60657,-1.31601 -0.41468,-1.52968 2.364,-3.42682 1.83012,-0.8766 -0.14281,-1.08259 -0.1862,-1.08643 1.85868,-3.59816 1.51595,-0.79588 0.098,-0.57712 24.13362,-2.50824 0.11947,4.06067 0.10447,10.76092 -0.52237,20.05919 -0.10447,9.08933 1.77608,12.11909 0.95929,8.65685 z"
     id="MS"
     class="state"
     inkscape:connector-curvature="0"
     style="fill:#d3d3d3;stroke:#ffffff;stroke-width:0.48469549;stroke-opacity:1" />
  <path
     d="m 368.49237,124.30665 0.17086,1.80061 1.4371,0.37306 0.61649,0.79188 0.32314,1.19905 2.45116,2.17056 0.44325,1.54553 -0.4358,2.2131 -1.02258,2.0887 -0.51658,1.77191 -1.40417,1.03534 -1.10866,0.36992 -3.6055,1.20217 -0.89925,2.48726 0.47089,0.8865 1.18945,1.08739 -0.18285,2.6085 -1.13945,0.99386 -0.49853,1.06189 0.0822,1.79423 -1.21904,0.2955 -1.05047,0.71406 -0.18017,0.87415 0.18017,1.36679 -1.00236,0.72127 -1.59661,-2.02491 -0.81595,-1.58326 -42.48247,1.62525 -0.59329,0.10692 -1.32638,-2.91849 -0.14775,-4.28475 -1.03425,-2.6595 -0.44325,-3.39824 -1.4775,-2.364 -0.59099,-3.10275 -1.773,-4.87574 -0.73875,-3.47213 -0.8865,-1.40362 -1.03425,-1.77299 1.26278,-3.13038 0.8865,-3.69374 -1.773,-1.32976 -0.2955,-1.77299 0.59101,-1.62525 1.10812,0 53.41603,-0.82042 0.53915,2.70339 1.4555,1.00879 0.1659,0.91969 -1.31161,2.19038 0.12305,2.0716 1.62525,2.45463 1.63297,0.83601 1.99002,0.3251 0.42546,0.53793 z"
     id="IA"
     class="state"
     inkscape:connector-curvature="0"
     style="fill:#d3d3d3;stroke:#ffffff;stroke-width:0.48469549;stroke-opacity:1" />
  <path
     d="m 307.77377,78.577298 -0.29551,-5.46675 -1.18199,-4.72799 -1.182,-8.71723 -0.2955,-6.35325 -1.182,-2.21624 -1.03425,-3.2505 0,-6.64874 0.44324,-2.51175 -1.17679,-3.5232 19.47339,0.0228 0.20895,-5.32822 0.4179,-0.10447 1.46265,0.31342 1.25369,0.52237 0.52238,3.55215 0.94027,3.97004 1.04475,1.04475 3.13425,0 0.20895,0.94027 4.07451,0.20895 0,1.35817 3.13425,0 0.20895,-0.8358 0.73132,-0.73132 1.46265,-0.4179 0.83579,0.62685 1.88055,0 2.50739,1.6716 3.44768,1.56712 1.56712,0.31342 0.31342,-0.62684 0.94027,-0.31343 0.31343,1.88055 1.6716,0.8358 0.31342,-0.31343 0.8358,0.10448 0,1.35817 1.67159,0.62685 1.98503,0 1.04475,-0.52238 2.08949,-2.08949 1.6716,-0.31343 0.52237,1.14923 0.31343,0.83579 0.62684,0 0.62685,-0.52237 5.74612,-0.20895 1.14922,1.98502 0.4179,0 0.46118,-0.70072 2.86934,-0.23955 -0.39558,1.47312 -2.54544,1.18727 -5.97518,2.62454 -3.08573,1.29698 -1.98502,1.6716 -1.56712,2.29844 -1.46265,2.5074 -1.14922,0.52237 -2.92529,3.23872 -0.83581,0.10447 -2.79687,1.78182 -1.59166,2.07134 -0.14775,2.06247 0.061,5.1981 -0.88928,1.09137 -3.284,2.42992 -1.44122,3.8662 1.8559,1.44356 0.43939,2.08547 -1.19897,2.09319 0.11037,2.4222 0.23838,4.34959 1.95704,1.94007 2.1514,0 1.22215,2.02448 2.18383,0.32524 2.49402,3.665252 4.58024,2.66049 1.38503,1.85808 0.43374,4.1616 -52.4838,0.73983 -0.21838,-23.056542 -0.2955,-1.92075 -2.6595,-2.21624 -0.73875,-1.182 0,-1.03426 1.32975,-1.03424 0.8865,-0.8865 0.14775,-2.0685 z"
     id="MN"
     class="state"
     inkscape:connector-curvature="0"
     style="fill:#d3d3d3;stroke:#ffffff;stroke-width:0.48469549;stroke-opacity:1" />
  <path
     d="m 246.44707,202.65745 -10.78233,-0.82289 -0.56885,7.07813 13.22597,0.74764 20.71624,0.84247 -1.50876,15.78081 -0.29551,11.52449 0.14776,1.03425 2.80725,2.364 1.32974,0.73874 0.44325,-0.14774 0.44325,-1.32976 0.8865,1.18201 1.32975,0 0,-0.8865 1.773,0.8865 -0.2955,2.51174 2.6595,0.14775 1.62524,0.73875 2.6595,0.44325 1.62525,1.182 1.4775,-1.32974 2.21625,0.44324 1.62525,2.21625 0.59099,0 0,1.4775 1.4775,0.44324 1.47749,-1.47749 1.18201,0.44324 1.62524,0 0.591,1.62526 4.07214,1.34355 0.8865,-0.44324 1.182,-2.6595 0.73874,0 0.73876,1.32975 2.6595,0.44325 2.36399,0.8865 1.92075,0.591 1.182,-0.591 0.44325,-1.62525 2.80724,0 1.32975,0.591 1.77299,-1.32975 0.73876,0 0.44325,1.03425 2.65949,0 1.03425,-1.32975 1.18201,0.2955 1.32974,1.62525 2.06849,1.18199 2.06851,0.59101 1.25444,0.72312 -0.25146,-24.05189 -0.8865,-7.09205 -0.1037,-5.73385 -0.93055,-4.22507 -0.50292,-4.63992 -0.044,-2.46628 -7.84356,0.20599 -29.99298,-0.29549 -29.10688,-1.32976 -15.69845,-0.8865 z"
     id="OK"
     class="state"
     inkscape:connector-curvature="0"
     style="fill:#d3d3d3;stroke:#ffffff;stroke-width:0.48469549;stroke-opacity:1" />
  <path
     d="m 234.24638,208.95987 14.66416,0.7018 20.09398,0.73875 -1.50876,15.15856 -0.19179,11.73191 0.044,1.34538 2.80725,2.4677 1.28389,0.93524 0.76531,-0.36171 0.2413,-1.17472 0.73694,1.16561 1.36467,0.0284 -0.002,-0.9352 1.07922,0.62511 0.73589,0.26424 -0.23218,2.56414 2.64204,0.0604 1.89052,0.77369 2.55579,0.33953 1.53899,1.34356 1.37273,-1.34175 2.40728,0.3974 1.43529,2.08415 0.6947,0.20742 -0.10371,1.27008 1.43057,0.51202 1.50589,-1.32793 1.37848,0.3974 1.44076,0.0229 0.60301,1.57393 4.0896,1.36648 1.02952,-0.49563 0.96259,-2.69989 0.22019,0 0.58583,0.0527 0.79429,1.33688 2.53972,0.42994 2.15658,0.72567 2.21385,0.77291 1.18949,-0.6301 0.46128,-1.62524 2.87794,0.0286 1.16891,0.60153 1.80905,-1.36136 0.71324,0.0286 0.54999,1.03729 2.62041,0 0.98158,-1.31102 1.20681,0.26319 1.25764,1.55314 2.27521,1.32106 1.84751,0.52334 0.97819,0.51691 1.5812,1.29079 1.9666,-0.8581 1.73915,0.73601 0.36436,3.94603 -0.0257,6.27013 0.44325,6.16146 0.45379,2.32984 1.72896,2.85638 0.58046,3.19946 2.7246,3.57901 0.12668,2.03245 0.48235,0.50786 -0.47181,5.41571 -1.85613,3.2355 0.9907,1.39132 -0.4072,1.511 -0.43271,4.78513 -0.97219,2.15721 0.19057,2.26343 -3.66099,1.02444 -6.37296,2.9253 -0.62685,1.2537 -1.6716,1.2537 -1.35817,0.94027 -0.8358,0.52237 -3.65661,3.44767 -1.77607,1.35818 -3.44768,2.08949 -3.65661,1.56712 -4.07452,2.19397 -1.14922,0.94028 -3.76109,2.29844 -2.19397,0.4179 -2.5074,3.55214 -2.61187,0.20896 -0.62685,1.25369 1.46265,1.2537 -0.94028,3.55214 -0.83579,2.9253 -0.73133,2.50739 -0.52237,2.9253 0.52237,1.56712 1.14922,4.49242 0.62686,3.97003 1.14922,1.77608 -0.62685,0.94027 -1.98502,1.2537 -3.65662,-2.5074 -3.55214,-0.73132 -0.8358,0.31343 -2.0895,-0.4179 -2.71634,-1.98502 -3.34319,-0.73133 -4.91033,-2.19397 -1.35816,-2.5074 -0.83581,-4.17898 -2.08949,-1.2537 -0.4179,-1.46265 0.4179,-0.4179 0.20895,-2.19397 -0.8358,-0.4179 -0.4179,-0.62685 0.8358,-2.82082 -1.04475,-1.46265 -2.08949,-0.8358 -2.19397,-2.82082 -2.29845,-4.28346 -2.71634,-1.6716 0.10447,-1.2537 -3.44767,-7.94008 -0.52237,-2.71635 -1.14922,-1.25369 -0.10448,-0.94028 -3.86557,-3.44766 -1.67159,-1.98502 0,-0.73133 -1.6716,-1.35817 -4.38795,-0.73133 -4.80583,-0.4179 -1.98503,-1.46264 -2.92529,1.14922 -2.29844,0.94028 -1.46265,2.08949 -0.62685,2.40292 -2.82082,3.97004 -1.56712,1.56712 -1.6716,-0.62684 -1.14922,-0.73133 -1.2537,-0.4179 -2.5074,-1.46264 0,-0.41791 -1.14922,-1.25369 -3.34319,-1.35818 -4.80584,-5.01478 -1.46265,-3.02977 0,-5.22375 -2.0895,-4.17899 -0.31342,-1.77606 -1.04475,-0.62686 -0.73132,-1.35817 -3.23872,-1.35817 -0.8358,-1.04475 -4.59689,-5.11927 -0.8358,-2.08949 -3.02977,-1.46265 -0.94028,-2.82085 -1.67161,-1.88053 -1.25369,-0.31341 -0.41957,-3.02298 5.17129,0.44327 18.76417,1.77298 18.76423,1.03425 1.44345,-12.57741 2.51172,-35.90302 1.03427,-12.11566 0.8865,0.0185 m 63.99878,148.42199 -0.36566,-4.5969 -1.77608,-4.64915 -0.36567,-4.54467 0.99251,-5.32823 2.14175,-4.44019 2.24621,-3.49992 2.03727,-2.29846 0.4179,0.15672 -3.08202,4.28348 -2.82082,4.23125 -1.30595,4.28347 -0.20895,3.34321 0.57461,3.97006 1.67161,4.64915 0.31342,3.34319 0.10448,0.94029 -0.57461,0.1567 z"
     id="TX"
     class="state"
     inkscape:connector-curvature="0"
     style="fill:#d3d3d3;stroke:#ffffff;stroke-width:0.48469549;stroke-opacity:1" />
  <g
     id="co"
     inkscape:label="#g3072">
    <path
       style="fill:#bacee0;stroke:#ffffff;stroke-width:0.48469549000000001;stroke-opacity:1"
       inkscape:connector-curvature="0"
       class="state"
       id="CO"
       d="m 246.24627,202.74994 3.16877,-55.78843 -73.27857,-8.17129 -7.89331,56.83162 78.00311,7.1281 z" />
    <g
       transform="scale(1.0664633,0.93767878)"
       style="font-size:43.64546967px;font-style:normal;font-weight:normal;line-height:100%;letter-spacing:0px;word-spacing:0px;fill:#000000;fill-opacity:1;stroke:none;font-family:Sans"
       id="text3129-8">
      <path
         d="m 233.92837,200.87817 0,3.68685 -20.65062,0 c -0.0284,-0.92349 0.12076,-1.81146 0.44754,-2.66391 0.52567,-1.40654 1.36747,-2.79177 2.52538,-4.1557 1.15791,-1.36391 2.83084,-2.94094 5.0188,-4.7311 3.39559,-2.78466 5.6901,-4.99037 6.88354,-6.61715 1.19342,-1.62674 1.79013,-3.1647 1.79015,-4.61388 -2e-5,-1.52018 -0.54346,-2.80241 -1.63031,-3.84669 -1.08689,-1.04422 -2.50409,-1.56635 -4.2516,-1.56638 -1.84699,3e-5 -3.32457,0.55413 -4.43274,1.66228 -1.1082,1.10821 -1.66939,2.64262 -1.68359,4.60324 l -3.94259,-0.40492 c 0.26994,-2.94093 1.28578,-5.18216 3.04751,-6.7237 1.76173,-1.54149 4.12728,-2.31224 7.09665,-2.31227 2.99777,3e-5 5.37043,0.83117 7.11797,2.49341 1.7475,1.66231 2.62126,3.7224 2.62128,6.18027 -2e-5,1.25028 -0.25575,2.47923 -0.7672,3.68685 -0.51149,1.20766 -1.36039,2.47923 -2.5467,3.81472 -1.18634,1.33552 -3.15763,3.16828 -5.91387,5.4983 -2.30163,1.93223 -3.77921,3.24287 -4.43275,3.93193 -0.65355,0.68907 -1.19344,1.38169 -1.61965,2.07785 z"
         style=""
         id="path3086" />
    </g>
  </g>
  <path
     d="m 186.86792,269.34618 -0.50112,-3.06851 5.58614,0.33955 19.49882,1.90382 17.62234,1.09211 1.43164,-12.0899 2.49286,-36.11045 1.123,-12.53049 1.01572,0.0831 0.53343,-7.21446 -67.21399,-6.8736 -11.30785,77.83229 9.99163,1.28551 0.83579,-6.47744 18.89159,1.82849 z"
     id="NM"
     class="state"
     inkscape:connector-curvature="0"
     style="fill:#d3d3d3;stroke:#ffffff;stroke-width:0.48469549;stroke-opacity:1" />
  <path
     d="m 328.86951,204.95738 -8.15468,0.13211 -29.78557,-0.29549 -28.79575,-1.32976 -15.91723,-0.81262 2.5164,-41.74518 14.27168,0.43633 26.03728,0.54377 28.63014,0.63823 3.29311,0 1.41169,1.39747 1.30394,-0.0138 1.06006,0.65432 -0.0404,1.94475 -1.182,1.11504 -0.21472,1.44256 1.19111,2.19879 1.90799,2.06485 1.50408,1.04336 0.84063,7.2645 0.12223,23.32079 z"
     id="KS"
     class="state"
     inkscape:connector-curvature="0"
     style="fill:#d3d3d3;stroke:#ffffff;stroke-width:0.48469549;stroke-opacity:1" />
  <path
     d="m 233.54354,87.916718 -68.98355,-8.69677 -9.1016,57.166952 73.19846,8.77977 4.88669,-57.249952 z"
     id="WY"
     class="state"
     style="fill:#d3d3d3;fill-opacity:0.99470902999999999;stroke:#ffffff;stroke-width:0.48469549000000001;stroke-opacity:1"
     inkscape:connector-curvature="0" />
  <path
     d="m 314.7922,150.87848 2.08781,4.53669 -0.0831,1.48803 2.23556,3.55048 1.75737,2.03723 -3.26328,0 -28.10107,-0.60663 -26.35894,-0.57537 -14.38074,-0.50658 0.69329,-13.78335 -20.886,-1.88724 2.80724,-28.44185 10.04698,0.66488 13.00199,0.73874 11.52449,0.73876 15.36598,0.73875 6.94424,-0.2955 1.32975,1.47749 3.10274,1.92075 0.73875,0.591 2.80725,-0.8865 2.51175,-0.29549 1.773,-0.14776 1.18199,0.8865 2.62216,1.03425 1.92075,1.03425 0.2955,1.03425 0.591,1.32975 1.18199,0 0.51571,0.0299 0.5779,3.02568 1.88725,5.47248 0.37001,2.42782 1.63083,2.43915 0.3681,3.30507 1.0387,2.74038 0.16308,4.18406 z"
     id="NE"
     class="state"
     inkscape:connector-curvature="0"
     style="fill:#d3d3d3;stroke:#ffffff;stroke-width:0.48469549;stroke-opacity:1" />
  <path
     d="m 308.55513,127.17627 -0.0306,-0.37539 -1.87138,-3.13142 1.20219,-3.04525 0.96469,-3.80424 -1.79781,-1.34404 -0.24891,-1.77299 0.51209,-1.65077 2.06061,0.01 -0.0795,-3.23527 -0.2154,-19.500432 -0.39921,-2.43484 -2.63178,-2.15265 -0.63504,-1.08375 -0.0404,-1.03972 1.30682,-0.98839 0.99021,-1.07646 0.15831,-1.71698 -37.64927,-1.03424 -35.41457,-2.22901 -3.44151,41.161112 9.42911,0.58409 12.89281,0.77914 11.46663,0.60011 15.36599,0.84245 7.74395,-0.27443 1.27074,1.45097 3.35709,2.10252 0.49367,0.46708 2.93496,-0.93889 4.22689,-0.39739 1.08268,0.86357 2.71721,1.03152 1.90328,1.05717 0.25784,0.95893 0.67178,1.44819 1.44593,-0.13013 z"
     id="SD"
     class="state"
     inkscape:connector-curvature="0"
     style="fill:#d3d3d3;stroke:#ffffff;stroke-width:0.48469549;stroke-opacity:1" />
  <path
     d="m 307.81737,78.638088 -0.39739,-5.45035 -1.08375,-4.40486 -1.2224,-8.41704 -0.29549,-7.10048 -1.12415,-1.98864 -1.13522,-3.35693 0.0202,-6.74972 0.40285,-2.47136 -1.1853,-3.5336 -18.51036,-0.36451 -12.0146,-0.4179 -17.13387,-0.83579 -14.82932,-1.37904 -4.51946,43.41375 35.50055,2.16086 37.52772,0.89561 z"
     id="ND"
     class="state"
     inkscape:connector-curvature="0"
     style="fill:#d3d3d3;stroke:#ffffff;stroke-width:0.48469549;stroke-opacity:1" />
  <path
     d="m 239.25185,32.140068 -19.8236,-1.81459 -18.90995,-2.29845 -18.90993,-2.61187 -20.89497,-3.44766 -11.91012,-2.19397 -21.14801,-4.48036 -2.89462,13.79607 2.21625,4.87574 -0.8865,2.955 1.182,2.95499 2.0685,0.8865 2.98626,6.95988 1.74174,2.05286 0.29549,0.73875 2.21625,0.73875 0.2955,1.32974 -4.58024,11.37675 0,1.62525 1.62525,2.06849 0.59099,0 3.10274,-1.92075 0.44326,-0.73875 1.03425,0.44325 -0.14775,3.39825 1.773,8.12624 1.92074,1.62524 0.591,0.44325 1.182,1.4775 -0.2955,2.21625 0.44325,2.21624 0.73875,0.59101 1.4775,-1.4775 1.77299,0 2.0685,1.03425 1.62525,-0.591 2.6595,0 2.36399,1.03425 1.773,-0.29551 0.2955,-1.92075 1.92074,-0.44324 0.8865,0.8865 0.29551,2.06849 0.92148,0.5394 1.21946,-7.13132 68.98553,8.67858 5.68852,-55.77175 z"
     id="MT"
     class="state"
     inkscape:connector-curvature="0"
     style="fill:#d3d3d3;stroke:#ffffff;stroke-width:0.48469549;stroke-opacity:1" />
  <path
     d="m 96.602276,109.3778 5.668264,-22.761772 0.88651,-2.73337 1.62524,-3.84149 -0.81262,-1.4775 -1.62526,0.0739 -0.51712,-0.66487 0.29551,-0.73875 0.22161,-1.99462 2.88113,-3.546 1.182,-0.2955 0.73874,-0.73875 0.36938,-2.0685 0.59099,-0.44324 2.51175,-3.76762 2.51175,-2.80725 0.14775,-2.43787 -2.21625,-1.69912 -0.99236,-2.84418 8.80524,-40.93525 8.73589,1.63382 -2.84877,13.819 2.30091,4.83749 -1.02181,3.01212 1.27304,2.99944 2.02811,0.81119 2.47863,6.17604 2.27011,2.86756 0.32782,0.73875 2.15912,0.73875 0.23838,1.35526 -4.50509,11.22949 -0.10675,1.65826 1.70039,2.14668 0.58491,-0.0316 3.17398,-1.95533 0.43779,-0.70763 1.00966,0.42579 -0.17995,3.4599 1.77027,8.13171 2.53194,2.05376 1.08648,1.39944 -0.46312,2.63924 0.68906,1.81432 0.68609,0.70525 1.60227,-1.51963 1.84065,0.0316 1.8866,0.86289 1.79662,-0.4407 2.45208,-0.10372 2.5714,1.03425 1.77301,-0.19178 0.32102,-1.96289 1.89522,-0.49428 0.8144,0.97967 0.28495,1.90321 0.9205,0.78405 -5.41955,34.645172 c 0,0 -56.84895,-10.79295 -61.368514,-11.76476 z"
     id="ID"
     class="state"
     inkscape:connector-curvature="0"
     style="fill:#d3d3d3;stroke:#ffffff;stroke-width:0.48469549;stroke-opacity:1" />
  <path
     d="m 168.34984,195.73189 -54.1237,-7.67257 13.30496,-72.73105 30.23228,5.65164 -0.95957,6.87002 -1.49391,8.51297 5.0458,0.59997 10.60289,1.16637 5.30643,0.55296 -7.91518,57.04969 z"
     id="UT"
     class="state"
     inkscape:connector-curvature="0"
     style="fill:#d3d3d3;stroke:#ffffff;stroke-width:0.48469549;stroke-opacity:1" />
  <path
     d="m 94.29667,242.60129 -1.697733,1.39485 -0.208949,0.94027 0.313423,0.62685 12.223549,6.89534 7.83561,4.91031 9.50721,5.53717 10.86538,6.47744 7.94009,1.56712 16.12495,1.74808 11.15162,-76.98714 -54.11504,-7.70165 -1.99849,10.60673 -1.03808,0.01 -1.10813,1.69913 -1.62525,-0.0739 -0.81262,-1.773 -1.77299,-0.22162 -0.59101,-0.73875 -0.59099,0 -0.59101,0.36938 -1.25587,0.66487 -0.0739,4.50636 -0.14776,1.10813 -0.36936,8.12623 -0.96038,1.40362 -0.36937,2.14238 1.77299,3.17662 0.81262,3.76762 0.51713,0.66488 0.66488,0.36937 -0.0739,1.4775 -1.03425,0.88649 -2.21624,1.10813 -1.25588,1.25587 -0.960371,2.36399 -0.369377,3.17663 -1.846871,1.77299 -1.329746,0.44325 0.08769,0.53632 -0.295502,1.10813 0.295502,0.51712 2.363996,0.36937 -0.369377,1.773 -0.960375,1.40362 -2.43787,0.591 z"
     id="AZ"
     class="state"
     inkscape:connector-curvature="0"
     style="fill:#d3d3d3;stroke:#ffffff;stroke-width:0.48469549;stroke-opacity:1" />
  <path
     d="m 96.759337,108.76229 5.719213,-22.490852 0.67908,-2.73337 1.52154,-3.63408 -0.39778,-0.75152 -1.62525,-0.0299 -0.82825,-1.0797 0.29549,-0.94618 0.32534,-2.09833 2.88113,-3.546 1.18199,-0.71033 0.73875,-0.73875 0.96037,-2.30433 2.61546,-3.66391 2.30432,-2.49611 0.14775,-2.23045 -2.11254,-1.59541 -1.15254,-3.00035 -8.1841,-2.33428 -9.751486,-2.29012 -9.973107,0.0739 -0.295496,-0.88649 -3.546,1.32975 -2.881121,-0.36938 -1.551375,-1.03425 -0.812621,0.44326 -3.028868,-0.14776 -1.108124,-0.88649 -3.398246,-1.32975 -0.517126,0.0739 -2.807246,-0.96038 -1.255873,1.182 -3.989245,-0.22162 -3.841492,-2.6595 0.443248,-0.51713 0.147748,-5.02349 -1.477497,-2.51175 -2.659497,-0.36937 -0.443248,-1.62525 -1.521253,-0.30152 -3.747359,1.33051 -1.462647,4.17899 -2.089496,6.47744 -2.089497,4.17899 -3.238718,9.08931 -4.178993,8.77588 -5.223739,8.14904 -1.253698,1.88054 -0.522374,5.53717 0.249518,7.80697 72.754955,17.010442 z"
     id="OR"
     class="state"
     inkscape:connector-curvature="0"
     style="fill:#d3d3d3;stroke:#ffffff;stroke-width:0.48469549;stroke-opacity:1" />
  <path
     d="m 66.612181,0.24234775 2.820818,0.94027995 6.268489,1.77607 5.537162,1.25369 12.954877,3.65662 14.835423,3.6566203 9.8381,2.07267 -8.81005,41.09301 -8.04272,-2.27828 -10.022214,-2.30758 -9.842092,0.0215 -0.294417,-0.86903 -3.618555,1.40839 -2.969846,-0.47613 -1.387502,-1.02371 -0.848676,0.42523 -3.060471,-0.0906 -1.097583,-0.87221 -3.401296,-1.3651 -0.474983,0.0949 -2.836517,-0.98519 -1.223564,1.1745 -4.049408,-0.19306 -3.829546,-2.66628 0.503409,-0.60281 0.07834,-4.96164 -1.474766,-2.48144 -2.659497,-0.39231 -0.437784,-1.62251 -1.470574,-0.2953 -2.297423,0.79527 -1.462647,-2.08047 0.208949,-1.88055 1.776072,-0.20895 1.044748,-2.61186 -1.671597,-0.73133 0.104475,-2.40292 2.82082,-0.4179 -1.776072,-1.77607 -0.940273,-4.59689 0.417899,-1.88055 0,-5.11926 -1.149223,-2.0895003 1.462648,-6.05954 1.358172,0.31343 1.567122,1.88054 1.776072,1.6716 2.089496,1.2537 2.925294,1.35817 1.985023,0.4179003 1.880547,0.94027 2.193972,0.62685 1.462647,-0.10447 0,-1.56713 0.835799,-0.7313203 1.35817,-0.8358 0.208955,0.73133 0.208949,1.1492203 -1.46265,0.31342 -0.20895,1.35818 1.149221,0.94027 0.731328,1.56712 0.417898,1.2537 0.940271,-0.10448 0.104474,-0.83579 -0.626847,-0.8358 -0.313423,-2.0895 0.522372,-1.14922 -0.417898,-0.9402703 0,-1.46265 1.149226,-2.29845 -0.731328,-1.67159 -1.567124,-3.13425 0.208956,-0.52236995 0.731321,-0.52238 z m -6.111488,3.86396995 1.30594,-0.10447 0.313425,0.88804 0.992514,-1.04476 1.514888,0 0.522374,0.99251 -0.992514,1.09699 0.417906,0.52238 -0.47014,1.30594 -0.888039,0.26119 c 0,0 -0.574615,0.0522 -0.574615,-0.15671 0,-0.20895 0.94028,-1.67161 0.94028,-1.67161 l -1.096989,-0.36566 -0.208949,0.94028 -0.470141,0.4179 -0.992515,-1.46266 -0.313425,-1.61936 z"
     id="WA"
     class="state"
     inkscape:connector-curvature="0"
     style="fill:#d3d3d3;stroke:#ffffff;stroke-width:0.48469549;stroke-opacity:1" />
  <g
     id="ca"
     inkscape:label="#g3077">
    <path
       style="fill:#bacee0;fill-opacity:0.99470903;stroke:#ffffff;stroke-width:0.48469549;stroke-opacity:1"
       class="state"
       id="CA"
       d="m 94.102824,242.54875 2.546319,-0.31577 0.960369,-1.29992 0.351915,-1.90071 -2.295208,-0.38137 -0.332288,-0.43184 0.30859,-1.31341 -0.102937,-0.38108 1.242482,-0.40041 1.966429,-1.83065 0.375839,-3.22814 0.891776,-2.19865 1.25587,-1.39997 2.27411,-1.02734 1.06917,-1.03714 0.0444,-1.36286 -0.64195,-0.37484 -0.66122,-0.69326 -0.74657,-3.77962 -1.73534,-3.1215 0.36566,-2.26514 -1.563679,-0.66521 -44.631619,-67.3264 12.215694,-43.68818 -43.35108,-10.144982 -0.973847,3.05891 -0.104475,4.80584 -3.343194,7.626662 -1.985021,1.6716 -0.208949,0.73132 -1.149224,0.52238 -0.940273,2.71634 -0.522374,2.0895 1.776072,2.71634 1.044748,2.71634 0.731324,2.29845 -0.20895,4.17899 -1.149223,1.98502 -0.417899,3.7611 -0.626849,2.40292 1.149223,2.50739 1.776071,2.9253 1.462648,3.13424 0.835798,2.61187 -0.208949,2.0895 -0.20895,0.31342 0,1.35817 3.656618,4.07452 -0.313424,1.56712 -0.417899,1.46265 -0.4179,1.2537 0.104475,5.32822 1.358172,2.40292 1.253698,1.67159 1.776072,0.31343 0.626849,1.77606 -0.731324,2.29845 -1.358173,1.04475 -0.731323,0 -0.522374,2.5074 0.313424,1.88054 2.089497,2.82082 1.044747,3.44767 0.940273,3.02977 0.835799,1.98502 2.193971,3.7611 0.940273,1.67159 0.313425,1.88055 1.044747,0.62684 0,1.56713 -0.522373,1.2537 -1.149223,4.59689 -0.313425,1.25369 1.567123,1.77608 2.716344,0.31342 2.925295,1.14922 2.507395,1.35817 1.880547,0 1.880546,1.98503 1.671596,3.13424 0.731325,1.46265 2.507395,1.35817 3.134244,0.52237 0.940273,1.35818 0.417899,2.0895 -0.940273,0.41789 0.20895,0.62685 2.089497,0.52237 1.776071,0.10448 2.042112,-1.09014 2.507397,2.71634 0.522371,1.46265 1.671606,2.71635 0.208949,2.08949 0,6.05954 0.313423,1.14922 6.477438,0.94028 12.745922,1.77607 8.947505,0.87225 z M 37.1445,214.29638 l 0.835801,0.99252 -0.104474,0.8358 -2.089504,-0.0522 -0.365663,-0.78356 -0.417901,-0.94028 2.141741,-0.0522 z m 1.253702,0 0.783564,-0.4179 2.298454,1.35818 1.985028,0.78356 -0.574613,0.41791 -2.925305,-0.15672 -1.044752,-1.04475 -0.522376,-0.94028 z m 13.372823,12.79821 1.149222,1.51489 0.522381,0.62685 0.992514,0.36566 0.365659,-0.94027 -0.626849,-1.14923 -1.723838,-1.30594 -0.679089,0.10448 0,0.78356 z m -0.940281,5.58942 1.14923,2.03727 0.783564,1.2537 -0.940279,0.15671 -0.835799,-0.78356 c 0,0 -0.47014,-0.94028 -0.47014,-1.20147 0,-0.26118 0,-1.41041 0,-1.41041 l 0.313424,-0.0522 z"
       inkscape:connector-curvature="0" />
    <g
       transform="matrix(0.80828177,0,0,0.5167169,0.64626068,-4.6768423)"
       clip-path="url(#clipPath4058)"
       style="font-size:74.28102875px;font-style:normal;font-weight:normal;line-height:100%;letter-spacing:0px;word-spacing:0px;fill:#000000;fill-opacity:1;stroke:none;font-family:Sans"
       id="text3129-9">
      <path
         d="m 71.431386,379.52568 -6.492336,0.50778 c -0.580351,-2.56304 -1.402471,-4.4249 -2.466363,-5.58559 -1.765168,-1.86181 -3.941367,-2.79274 -6.528606,-2.79279 -2.079501,5e-5 -3.905091,0.58037 -5.476775,1.74096 -2.055316,1.49921 -3.675376,3.6875 -4.860184,6.56488 -1.184831,2.87746 -1.801421,6.97597 -1.849772,12.29554 1.571691,-2.39379 3.494,-4.17102 5.766935,-5.3317 2.272905,-1.1606 4.654635,-1.74092 7.145197,-1.74096 4.352377,4e-5 8.057962,1.60196 11.116765,4.80578 3.058737,3.20388 4.588122,7.34471 4.588159,12.42249 -3.7e-5,3.33686 -0.719392,6.43794 -2.158067,9.30326 -1.438745,2.86534 -3.41546,5.05968 -5.93015,6.58301 -2.51475,1.52335 -5.367989,2.28502 -8.559728,2.28502 -5.440521,0 -9.87755,-2.0009 -13.311102,-6.00269 -3.433568,-4.00179 -5.150348,-10.59688 -5.150345,-19.78531 -3e-6,-10.27647 1.898127,-17.74809 5.694395,-22.41488 3.312651,-4.06219 7.773861,-6.09331 13.383643,-6.09336 4.183117,5e-5 7.610632,1.17278 10.282554,3.51819 2.671858,2.34551 4.273783,5.58563 4.80578,9.72037 z m -26.658475,22.92266 c -1e-5,2.24876 0.477545,4.40078 1.432666,6.45607 0.955098,2.05531 2.291043,3.62096 4.007839,4.69696 1.716764,1.07602 3.518174,1.61403 5.404235,1.61402 2.756499,10e-6 5.126138,-1.11227 7.108927,-3.33684 1.982731,-2.22455 2.974111,-5.24705 2.974142,-9.06751 -3.1e-5,-3.67534 -0.979321,-6.5709 -2.937872,-8.68667 -1.958609,-2.11573 -4.424968,-3.1736 -7.399087,-3.17363 -2.949981,3e-5 -5.452611,1.0579 -7.507897,3.17363 -2.055313,2.11577 -3.082963,4.89043 -3.082953,8.32397 z"
         style=""
         id="path3083" />
    </g>
  </g>
</svg>
